<?xml version="1.0" encoding="UTF-8"?><svg id="a" xmlns="http://www.w3.org/2000/svg" viewBox="0 0 53 53"><defs><style>.b {
  fill: #da6f5c;
}

.c {
  fill: #fff;
  stroke: #fff;
  stroke-miterlimit: 10;
  stroke-width: .5px;
}

</style></defs><circle class="b" cx="26.5" cy="26.5" r="26.5"></circle><path class="c" d="M38.47,17.99H14.52c-.29,0-.52,.24-.52,.53v15.96c0,.29,.24,.53,.53,.53h23.94c.29,0,.53-.24,.53-.53v-15.96c0-.29-.24-.53-.53-.53Zm-1.28,1.06l-7.07,7.07h0l-3.61,3.61-3.61-3.61h0l-7.07-7.07h21.37Zm-22.12,.75l6.69,6.69-6.69,6.69v-13.39Zm.75,14.14l6.69-6.69,3.61,3.61c.19,.19,.47,.28,.75,0l3.61-3.61,6.69,6.69H15.82Zm22.12-.75l-6.69-6.69,6.69-6.69v13.39Z"></path></svg>