<svg id="a" xmlns="http://www.w3.org/2000/svg" viewBox="0 0 53 53"><circle cx="26.5" cy="26.5" r="26.5" style="fill:#da6f5c"/><path d="M38.47 17.99H14.52c-.29 0-.52.24-.52.53v15.96c0 .29.24.53.53.53h23.94c.29 0 .53-.24.53-.53V18.52c0-.29-.24-.53-.53-.53Zm-1.28 1.06-7.07 7.07-3.61 3.61-3.61-3.61-7.07-7.07H37.2Zm-22.12.75 6.69 6.69-6.69 6.69V19.79Zm.75 14.14 6.69-6.69 3.61 3.61c.19.19.47.28.75 0l3.61-3.61 6.69 6.69H15.82Zm22.12-.75-6.69-6.69 6.69-6.69V33.2Z" style="fill:#fff;stroke:#fff;stroke-miterlimit:10;stroke-width:.5px"/></svg>