<?xml version="1.0" encoding="utf-8"?>
<!-- Generator: Adobe Illustrator 26.2.1, SVG Export Plug-In . SVG Version: 6.00 Build 0)  -->
<svg version="1.1" id="Layer_1" xmlns="http://www.w3.org/2000/svg" xmlns:xlink="http://www.w3.org/1999/xlink" x="0px" y="0px" viewBox="0 0 558 124" style="enable-background: new 0 0 558 124" xml:space="preserve">
<style>.st0 {
  fill: #03224e;
}

</style>
<g>
	<g>
		<path class="st0" d="M136.6,105.9v-87c0-0.9,0.2-1.3,0.7-1.3h0.7c0.4,0,0.7,0.4,0.7,1.3v87c0,0.9-0.2,1.3-0.7,1.3h-0.7
			C136.8,107.2,136.6,106.8,136.6,105.9z"></path>
	</g>
	<g>
		<g>
			<g>
				<path class="st0" d="M73.7,102.4c-2.6-0.2-5.1-0.5-7.5-1.1c-0.6-0.1-1.2,0.2-1.3,0.8c-0.1,0.6,0.2,1.2,0.8,1.3
					c2.5,0.6,5.1,0.9,7.8,1.1c0,0,0.1,0,0.1,0c0.6,0,1.1-0.4,1.1-1C74.7,102.9,74.3,102.4,73.7,102.4z"></path>
				<path class="st0" d="M73.6,104.9L73.6,104.9c-2.8-0.2-5.4-0.6-8-1.1c-0.8-0.2-1.2-0.9-1.1-1.7c0.2-0.8,0.9-1.2,1.7-1.1
					c2.4,0.5,4.9,0.9,7.4,1.1c0.4,0,0.7,0.2,1,0.5c0.2,0.3,0.4,0.7,0.3,1C74.9,104.3,74.3,104.9,73.6,104.9z M65.9,101.6
					c-0.4,0-0.7,0.2-0.8,0.6c-0.1,0.4,0.2,0.8,0.6,0.9c2.5,0.6,5.1,0.9,7.8,1.1c0,0,0,0,0,0c0.5,0,0.8-0.3,0.8-0.7
					c0-0.2-0.1-0.4-0.2-0.6s-0.3-0.3-0.5-0.3l0,0c-2.6-0.2-5.1-0.6-7.5-1.1C66.1,101.6,66,101.6,65.9,101.6z"></path>
			</g>
			<g>
				<path class="st0" d="M38.1,77.1c-0.2-0.6-0.8-0.9-1.4-0.6c-0.6,0.2-0.9,0.8-0.6,1.4c0.9,2.5,2.1,4.9,3.4,7.1
					c0.2,0.3,0.6,0.5,0.9,0.5c0.2,0,0.4-0.1,0.6-0.2c0.5-0.3,0.7-1,0.4-1.5C40.1,81.7,39,79.5,38.1,77.1z"></path>
				<path class="st0" d="M40.5,85.9c-0.5,0-1-0.3-1.2-0.7c-1.4-2.3-2.5-4.7-3.5-7.2c-0.1-0.4-0.1-0.7,0-1.1c0.2-0.3,0.4-0.6,0.8-0.7
					c0.4-0.1,0.7-0.1,1.1,0c0.3,0.2,0.6,0.4,0.7,0.8l0,0c0.9,2.3,2,4.6,3.2,6.7c0.2,0.3,0.3,0.7,0.2,1.1c-0.1,0.4-0.3,0.7-0.6,0.9
					C41,85.8,40.7,85.9,40.5,85.9z M37.1,76.7c-0.1,0-0.2,0-0.3,0c-0.2,0.1-0.4,0.2-0.4,0.4c-0.1,0.2-0.1,0.4,0,0.6
					c0.9,2.5,2.1,4.9,3.4,7.1c0.2,0.4,0.7,0.5,1.1,0.3c0.2-0.1,0.3-0.3,0.4-0.5c0-0.2,0-0.4-0.1-0.6c-1.3-2.1-2.4-4.4-3.3-6.8l0,0
					c-0.1-0.2-0.2-0.4-0.4-0.4C37.3,76.7,37.2,76.7,37.1,76.7z"></path>
			</g>
			<g>
				<path class="st0" d="M34.5,60.1C34.5,60.1,34.5,60.1,34.5,60.1c0.7,0,1.1-0.4,1.2-1c0.2-2.5,0.6-5,1.2-7.4
					c0.2-0.6-0.2-1.2-0.8-1.3c-0.6-0.2-1.2,0.2-1.3,0.8c-0.7,2.5-1.1,5.2-1.3,7.8C33.4,59.6,33.9,60.1,34.5,60.1z"></path>
				<path class="st0" d="M34.6,60.4l-0.1,0c-0.4,0-0.7-0.2-1-0.5c-0.2-0.3-0.4-0.7-0.3-1c0.2-2.7,0.7-5.3,1.3-7.9
					c0.1-0.4,0.3-0.7,0.7-0.9c0.3-0.2,0.7-0.2,1.1-0.1c0.4,0.1,0.7,0.3,0.9,0.7c0.2,0.3,0.2,0.7,0.1,1.1c-0.6,2.4-1,4.9-1.2,7.4
					C35.9,59.9,35.3,60.4,34.6,60.4z M34.5,59.8L34.5,59.8c0.5,0,0.8-0.3,0.8-0.7c0.2-2.5,0.6-5,1.3-7.5c0.1-0.2,0-0.4-0.1-0.6
					c-0.1-0.2-0.3-0.3-0.5-0.4c-0.2-0.1-0.4,0-0.6,0.1c-0.2,0.1-0.3,0.3-0.4,0.5c-0.7,2.5-1.1,5.1-1.3,7.8c0,0.2,0,0.4,0.2,0.6
					C34.1,59.7,34.3,59.8,34.5,59.8z"></path>
			</g>
			<g>
				<path class="st0" d="M36.6,72c-0.6-2.4-0.9-4.9-1-7.5c0-0.6-0.5-1.1-1.2-1c-0.6,0-1.1,0.5-1,1.2c0.1,2.6,0.5,5.3,1.1,7.8
					c0.1,0.5,0.6,0.9,1.1,0.9c0.1,0,0.2,0,0.2,0C36.4,73.1,36.7,72.5,36.6,72z"></path>
				<path class="st0" d="M35.5,73.6c-0.7,0-1.2-0.5-1.4-1.1c-0.6-2.6-1-5.2-1.1-7.9c0-0.8,0.6-1.4,1.3-1.5c0,0,0,0,0,0
					c0.8,0,1.4,0.6,1.5,1.3c0.1,2.5,0.5,5,1,7.4l0,0c0.1,0.4,0,0.7-0.2,1.1c-0.2,0.3-0.5,0.5-0.9,0.6C35.7,73.6,35.6,73.6,35.5,73.6
					z M34.4,63.8C34.4,63.8,34.4,63.8,34.4,63.8c-0.4,0-0.8,0.4-0.7,0.8c0.1,2.6,0.5,5.2,1.1,7.8c0.1,0.4,0.5,0.7,0.9,0.6
					c0.2,0,0.4-0.2,0.5-0.3c0.1-0.2,0.1-0.4,0.1-0.6l0,0c-0.6-2.5-0.9-5-1-7.5C35.2,64.1,34.9,63.8,34.4,63.8z"></path>
			</g>
			<g>
				<path class="st0" d="M86.4,100.9c-2.4,0.7-4.9,1.2-7.4,1.4c-0.6,0.1-1.1,0.6-1,1.2c0.1,0.6,0.5,1,1.1,1c0,0,0.1,0,0.1,0
					c2.6-0.2,5.3-0.7,7.8-1.5c0.6-0.2,0.9-0.8,0.8-1.4C87.6,101.1,87,100.7,86.4,100.9z"></path>
				<path class="st0" d="M79.1,104.8c-0.7,0-1.3-0.6-1.4-1.3c-0.1-0.8,0.5-1.5,1.3-1.5c2.5-0.2,4.9-0.7,7.3-1.4
					c0.4-0.1,0.7-0.1,1.1,0.1c0.3,0.2,0.6,0.5,0.7,0.8c0.1,0.4,0.1,0.7-0.1,1.1c-0.2,0.3-0.5,0.6-0.8,0.7c-2.6,0.7-5.2,1.2-7.8,1.5
					C79.2,104.8,79.1,104.8,79.1,104.8z M86.7,101.2c-0.1,0-0.1,0-0.2,0l0,0c-2.4,0.7-4.9,1.2-7.4,1.4c-0.4,0-0.7,0.4-0.7,0.9
					c0,0.4,0.4,0.7,0.8,0.7c2.7-0.2,5.3-0.7,7.8-1.5c0.2-0.1,0.4-0.2,0.5-0.4c0.1-0.2,0.1-0.4,0.1-0.6c-0.1-0.2-0.2-0.4-0.4-0.5
					C86.9,101.2,86.8,101.2,86.7,101.2z"></path>
			</g>
			<g>
				<path class="st0" d="M61,99.8c-2.4-0.9-4.7-1.9-6.8-3.2c-0.5-0.3-1.2-0.1-1.5,0.4c-0.3,0.5-0.1,1.2,0.4,1.5
					c2.2,1.3,4.6,2.5,7.2,3.4c0.1,0,0.2,0.1,0.4,0.1c0.5,0,0.9-0.3,1-0.7C61.9,100.6,61.6,100,61,99.8z"></path>
				<path class="st0" d="M60.6,102.2c-0.2,0-0.3,0-0.5-0.1c-2.5-0.9-5-2.1-7.2-3.4c-0.7-0.4-0.9-1.3-0.5-1.9
					c0.2-0.3,0.5-0.6,0.9-0.6c0.4-0.1,0.7,0,1.1,0.2c2.1,1.2,4.4,2.3,6.7,3.2l0,0c0.7,0.3,1.1,1.1,0.9,1.8
					C61.8,101.8,61.2,102.2,60.6,102.2z M53.7,96.7c-0.1,0-0.1,0-0.2,0c-0.2,0.1-0.4,0.2-0.5,0.4c-0.2,0.4-0.1,0.9,0.3,1.1
					c2.2,1.3,4.6,2.4,7.1,3.3c0.4,0.1,0.9-0.1,1-0.5c0.1-0.2,0.1-0.4,0-0.6c-0.1-0.2-0.2-0.3-0.4-0.4c-2.4-0.9-4.7-2-6.8-3.2
					C53.9,96.8,53.8,96.7,53.7,96.7z"></path>
			</g>
			<g>
				<path class="st0" d="M44.5,88.2c-0.4-0.5-1.1-0.5-1.5-0.2c-0.5,0.4-0.5,1.1-0.2,1.5c1.7,2,3.6,3.9,5.6,5.6
					c0.2,0.2,0.4,0.2,0.7,0.2c0.3,0,0.6-0.1,0.9-0.4c0.4-0.5,0.3-1.2-0.2-1.5C47.9,91.9,46.1,90.2,44.5,88.2z"></path>
				<path class="st0" d="M49.1,95.8c-0.3,0-0.6-0.1-0.9-0.3c-2.1-1.7-4-3.6-5.7-5.6c-0.2-0.3-0.4-0.7-0.3-1c0-0.4,0.2-0.7,0.5-1
					c0.6-0.5,1.5-0.4,2,0.2l0,0c1.6,1.9,3.3,3.7,5.3,5.2c0.3,0.2,0.5,0.6,0.5,1c0,0.4-0.1,0.7-0.3,1C50,95.6,49.6,95.8,49.1,95.8z
					 M43.7,88.2c-0.2,0-0.4,0.1-0.5,0.2c-0.2,0.1-0.3,0.3-0.3,0.5c0,0.2,0,0.4,0.2,0.6c1.7,2,3.6,3.9,5.6,5.5
					c0.3,0.3,0.8,0.2,1.1-0.1c0.3-0.3,0.2-0.8-0.1-1.1c-2-1.6-3.8-3.4-5.4-5.3C44.1,88.3,43.9,88.2,43.7,88.2z"></path>
			</g>
			<g>
				<path class="st0" d="M104.7,32.2c-0.4-0.4-1.1-0.4-1.6,0c-0.4,0.4-0.4,1.1,0,1.6c1.8,1.7,3.4,3.7,4.9,5.7
					c0.2,0.3,0.6,0.5,0.9,0.5c0.2,0,0.4-0.1,0.6-0.2c0.5-0.3,0.6-1,0.3-1.5C108.3,36.1,106.6,34.1,104.7,32.2z"></path>
				<path class="st0" d="M108.9,40.3c-0.5,0-0.9-0.2-1.2-0.6c-1.4-2-3.1-3.9-4.8-5.7c-0.3-0.3-0.4-0.6-0.4-1c0-0.4,0.1-0.7,0.4-1
					c0.3-0.3,0.6-0.4,1-0.4c0.4,0,0.7,0.1,1,0.4c1.9,1.9,3.6,3.9,5.2,6.1c0.4,0.6,0.3,1.5-0.3,2C109.5,40.2,109.2,40.3,108.9,40.3z
					 M103.9,32.2C103.9,32.2,103.9,32.2,103.9,32.2c-0.2,0-0.4,0.1-0.6,0.2c-0.1,0.2-0.2,0.3-0.2,0.6c0,0.2,0.1,0.4,0.2,0.6
					c1.8,1.8,3.5,3.7,4.9,5.8c0.2,0.3,0.8,0.4,1.1,0.2c0.4-0.2,0.4-0.7,0.2-1.1c-1.5-2.1-3.2-4.2-5.1-6h0
					C104.3,32.3,104.1,32.2,103.9,32.2z"></path>
			</g>
			<g>
				<path class="st0" d="M107.2,86.5c-1.5,2-3.2,3.9-5.1,5.6c-0.4,0.4-0.5,1.1-0.1,1.6c0.2,0.2,0.5,0.4,0.8,0.4
					c0.3,0,0.5-0.1,0.7-0.3c2-1.8,3.8-3.7,5.3-5.9c0.4-0.5,0.3-1.2-0.2-1.5C108.3,85.9,107.6,86,107.2,86.5z"></path>
				<path class="st0" d="M102.9,94.3c-0.4,0-0.8-0.2-1-0.5c-0.5-0.6-0.5-1.5,0.1-2c1.8-1.7,3.5-3.5,5-5.5l0,0
					c0.2-0.3,0.6-0.5,0.9-0.6c0.4-0.1,0.7,0,1,0.3c0.3,0.2,0.5,0.6,0.5,0.9c0.1,0.4,0,0.7-0.3,1.1c-1.6,2.1-3.4,4.1-5.4,5.9
					C103.6,94.2,103.3,94.3,102.9,94.3z M107.5,86.7c-1.5,2-3.2,3.9-5.1,5.6c-0.3,0.3-0.3,0.8-0.1,1.1c0.3,0.3,0.8,0.3,1.1,0.1
					c1.9-1.8,3.7-3.7,5.3-5.8c0.1-0.2,0.2-0.4,0.1-0.6c0-0.2-0.1-0.4-0.3-0.5c-0.2-0.1-0.4-0.2-0.6-0.2
					C107.8,86.4,107.6,86.5,107.5,86.7L107.5,86.7z"></path>
			</g>
			<g>
				<path class="st0" d="M98,95.4c-2.1,1.4-4.3,2.7-6.6,3.7c-0.6,0.2-0.8,0.9-0.6,1.5c0.2,0.4,0.6,0.7,1,0.7c0.1,0,0.3,0,0.4-0.1
					c2.4-1.1,4.7-2.4,6.9-3.9c0.5-0.3,0.6-1,0.3-1.5C99.2,95.2,98.5,95,98,95.4z"></path>
				<path class="st0" d="M91.9,101.5c-0.6,0-1.1-0.3-1.3-0.8c-0.3-0.7,0-1.6,0.7-1.9c2.3-1,4.4-2.2,6.5-3.6l0,0
					c0.6-0.4,1.5-0.3,2,0.4c0.4,0.6,0.3,1.5-0.4,2c-2.2,1.5-4.5,2.8-7,3.9C92.2,101.4,92.1,101.5,91.9,101.5z M98.6,95.5
					c-0.2,0-0.3,0-0.4,0.1l0,0c-2.1,1.4-4.3,2.7-6.6,3.7c-0.4,0.2-0.6,0.6-0.4,1c0.2,0.4,0.6,0.6,1,0.4c2.4-1.1,4.7-2.3,6.9-3.8
					c0.4-0.2,0.4-0.7,0.2-1.1C99.1,95.6,98.8,95.5,98.6,95.5z"></path>
			</g>
			<g>
				<path class="st0" d="M114.6,74.4c-0.6-0.2-1.2,0.1-1.4,0.7c-0.8,2.4-1.8,4.7-3,6.9c-0.3,0.5-0.1,1.2,0.4,1.5
					c0.2,0.1,0.4,0.1,0.5,0.1c0.4,0,0.8-0.2,1-0.6c1.3-2.3,2.4-4.7,3.2-7.2C115.5,75.3,115.2,74.6,114.6,74.4z"></path>
				<path class="st0" d="M111.1,84c-0.2,0-0.5-0.1-0.7-0.2c-0.3-0.2-0.6-0.5-0.7-0.9c-0.1-0.4-0.1-0.7,0.1-1.1
					c1.2-2.2,2.2-4.5,3-6.8c0.2-0.7,1.1-1.1,1.8-0.9h0c0.7,0.2,1.1,1.1,0.9,1.8c-0.8,2.5-1.9,5-3.2,7.3
					C112.1,83.7,111.6,84,111.1,84z M114.3,74.7c-0.3,0-0.6,0.2-0.7,0.5c-0.8,2.4-1.8,4.7-3.1,6.9c-0.1,0.2-0.1,0.4-0.1,0.6
					c0.1,0.2,0.2,0.4,0.4,0.5c0.4,0.2,0.9,0.1,1.1-0.3c1.3-2.3,2.4-4.7,3.2-7.2c0.1-0.4-0.1-0.9-0.5-1
					C114.4,74.7,114.3,74.7,114.3,74.7z"></path>
			</g>
			<g>
				<path class="st0" d="M117,56c-0.1-0.6-0.6-1-1.3-0.9c-0.6,0.1-1,0.7-0.9,1.3c0.3,2,0.5,4.1,0.5,6.2c0,2.5-0.2,5-0.7,7.5
					c-0.1,0.6,0.3,1.2,0.9,1.3c0.1,0,0.1,0,0.2,0c0.5,0,1-0.4,1.1-0.9c0.5-2.6,0.7-5.2,0.7-7.9C117.5,60.3,117.3,58.1,117,56z"></path>
				<path class="st0" d="M115.7,71.6c-0.1,0-0.2,0-0.3,0c-0.8-0.1-1.3-0.9-1.1-1.7c0.5-2.4,0.7-4.9,0.7-7.4c0-2.1-0.2-4.1-0.5-6.1
					c-0.1-0.4,0-0.7,0.3-1.1c0.2-0.3,0.6-0.5,0.9-0.6c0.8-0.1,1.5,0.4,1.6,1.2l0,0c0.3,2.2,0.5,4.4,0.5,6.6c0,2.7-0.2,5.3-0.7,7.9
					C116.9,71.1,116.3,71.6,115.7,71.6z M115.9,55.3c0,0-0.1,0-0.1,0c-0.4,0.1-0.7,0.5-0.7,0.9c0.3,2,0.5,4.1,0.5,6.2
					c0,2.5-0.2,5.1-0.7,7.5c-0.1,0.4,0.2,0.8,0.6,0.9c0.4,0.1,0.8-0.2,0.9-0.6c0.5-2.6,0.7-5.2,0.7-7.8c0-2.2-0.2-4.3-0.5-6.5
					C116.6,55.6,116.3,55.3,115.9,55.3z"></path>
			</g>
			<g>
				<path class="st0" d="M67.3,23.4c0.1,0,0.1,0,0.2,0c2.4-0.5,4.9-0.8,7.5-0.9c0.6,0,1.1-0.5,1-1.1c0-0.6-0.5-1.1-1.1-1
					c-2.7,0.1-5.3,0.4-7.8,0.9c-0.6,0.1-1,0.7-0.9,1.3C66.3,23.1,66.7,23.4,67.3,23.4z"></path>
				<path class="st0" d="M67.3,23.7c-0.7,0-1.3-0.5-1.4-1.1c-0.1-0.4,0-0.7,0.2-1.1c0.2-0.3,0.5-0.5,0.9-0.6
					c2.5-0.5,5.2-0.8,7.9-0.9c0,0,0,0,0,0c0.8,0,1.4,0.6,1.4,1.3c0,0.4-0.1,0.7-0.4,1c-0.3,0.3-0.6,0.4-1,0.5
					c-2.6,0.1-5.1,0.4-7.5,0.9C67.4,23.7,67.4,23.7,67.3,23.7z M74.9,20.6C74.9,20.6,74.9,20.6,74.9,20.6c-2.7,0.1-5.3,0.4-7.8,0.9
					c-0.2,0-0.4,0.2-0.5,0.3c-0.1,0.2-0.2,0.4-0.1,0.6c0.1,0.4,0.5,0.7,0.9,0.6c2.4-0.5,5-0.8,7.6-0.9c0.2,0,0.4-0.1,0.5-0.3
					c0.1-0.2,0.2-0.4,0.2-0.6C75.7,21,75.3,20.6,74.9,20.6z"></path>
			</g>
			<g>
				<path class="st0" d="M54.8,27.9c0.2,0,0.4,0,0.5-0.1c2.2-1.2,4.5-2.2,6.9-3c0.6-0.2,0.9-0.8,0.7-1.4c-0.2-0.6-0.8-0.9-1.4-0.7
					c-2.5,0.8-5,1.9-7.3,3.1c-0.5,0.3-0.7,1-0.4,1.5C54.1,27.6,54.5,27.9,54.8,27.9z"></path>
				<path class="st0" d="M54.8,28.2c-0.5,0-1-0.3-1.2-0.7c-0.2-0.3-0.2-0.7-0.1-1.1c0.1-0.4,0.3-0.7,0.7-0.8
					c2.3-1.3,4.8-2.3,7.3-3.2c0.4-0.1,0.7-0.1,1.1,0.1c0.3,0.2,0.6,0.5,0.7,0.8c0.2,0.7-0.2,1.5-0.9,1.8c-2.4,0.8-4.7,1.8-6.8,2.9
					C55.3,28.1,55.1,28.2,54.8,28.2z M61.9,22.9c-0.1,0-0.2,0-0.2,0c-2.5,0.8-5,1.9-7.2,3.1c-0.2,0.1-0.3,0.3-0.4,0.5
					c-0.1,0.2,0,0.4,0.1,0.6c0.2,0.4,0.7,0.5,1.1,0.3c2.2-1.2,4.5-2.2,7-3c0.4-0.1,0.6-0.6,0.5-1c-0.1-0.2-0.2-0.4-0.4-0.5
					C62.2,22.9,62,22.9,61.9,22.9z"></path>
			</g>
			<g>
				<path class="st0" d="M92.6,26.4c2.3,1.1,4.4,2.4,6.4,3.9c0.2,0.1,0.4,0.2,0.7,0.2c0.3,0,0.7-0.2,0.9-0.4
					c0.4-0.5,0.3-1.2-0.2-1.5c-2.1-1.6-4.4-3-6.8-4.1c-0.5-0.3-1.2,0-1.5,0.5C91.8,25.5,92.1,26.2,92.6,26.4z"></path>
				<path class="st0" d="M99.7,30.8c-0.3,0-0.6-0.1-0.8-0.3c-2-1.5-4.1-2.8-6.4-3.9l0,0c-0.7-0.3-1-1.2-0.7-1.9
					c0.3-0.7,1.2-1,1.9-0.7c2.4,1.2,4.7,2.5,6.8,4.1c0.3,0.2,0.5,0.6,0.6,0.9c0.1,0.4,0,0.7-0.3,1.1
					C100.6,30.6,100.1,30.8,99.7,30.8z M93.1,24.7c-0.3,0-0.6,0.2-0.7,0.4c-0.2,0.4,0,0.9,0.4,1l0,0c2.3,1.1,4.5,2.4,6.5,3.9
					c0.3,0.3,0.8,0.2,1.1-0.2c0.1-0.2,0.2-0.4,0.1-0.6c0-0.2-0.1-0.4-0.3-0.5c-2.1-1.6-4.4-2.9-6.7-4.1
					C93.3,24.7,93.2,24.7,93.1,24.7z"></path>
			</g>
			<g>
				<path class="st0" d="M80.3,22.8c2.5,0.3,5,0.9,7.3,1.6c0.1,0,0.2,0.1,0.3,0.1c0.5,0,0.9-0.3,1-0.8c0.2-0.6-0.1-1.2-0.7-1.4
					c-2.5-0.8-5.1-1.4-7.7-1.7c-0.6-0.1-1.2,0.4-1.2,1C79.3,22.2,79.7,22.7,80.3,22.8z"></path>
				<path class="st0" d="M88,24.8c-0.1,0-0.3,0-0.4-0.1c-2.4-0.8-4.8-1.3-7.3-1.6c-0.4,0-0.7-0.2-0.9-0.5c-0.2-0.3-0.3-0.7-0.3-1
					c0.1-0.8,0.8-1.3,1.6-1.2c2.6,0.3,5.3,0.9,7.8,1.7c0.7,0.2,1.2,1,0.9,1.8C89.1,24.4,88.6,24.8,88,24.8z M80.4,20.9
					c-0.4,0-0.7,0.3-0.8,0.7c0,0.2,0,0.4,0.2,0.6c0.1,0.2,0.3,0.3,0.5,0.3l0,0c2.5,0.3,5,0.9,7.4,1.6c0.4,0.1,0.9-0.1,1-0.5
					c0.1-0.4-0.1-0.9-0.5-1C85.7,21.8,83.1,21.3,80.4,20.9C80.5,20.9,80.5,20.9,80.4,20.9z"></path>
			</g>
			<g>
				<path class="st0" d="M113.6,51.1c0.1,0.5,0.6,0.8,1.1,0.8c0.1,0,0.2,0,0.3,0c0.6-0.2,0.9-0.8,0.7-1.4c-0.8-2.5-1.8-5-3-7.3
					c-0.3-0.5-0.9-0.7-1.5-0.5c-0.5,0.3-0.7,0.9-0.5,1.5C112,46.3,112.9,48.7,113.6,51.1z"></path>
				<path class="st0" d="M114.7,52.2c-0.6,0-1.2-0.4-1.4-1v0c-0.7-2.4-1.6-4.7-2.8-6.9c-0.2-0.3-0.2-0.7-0.1-1.1
					c0.1-0.4,0.4-0.7,0.7-0.8c0.7-0.4,1.5-0.1,1.9,0.6c1.2,2.4,2.2,4.9,3,7.4c0.1,0.4,0.1,0.7-0.1,1.1c-0.2,0.3-0.5,0.6-0.8,0.7
					C114.9,52.1,114.8,52.2,114.7,52.2z M113.9,51c0.1,0.4,0.6,0.7,1,0.5c0.4-0.1,0.7-0.6,0.5-1c-0.7-2.5-1.7-5-2.9-7.3
					c-0.2-0.4-0.7-0.5-1.1-0.3c-0.2,0.1-0.3,0.3-0.4,0.5c-0.1,0.2,0,0.4,0.1,0.6C112.2,46.2,113.2,48.6,113.9,51L113.9,51z"></path>
			</g>
			<g>
				<path class="st0" d="M51.1,29.1c-0.4-0.5-1.1-0.6-1.5-0.2c-0.9,0.7-1.7,1.4-2.5,2.1c-1.2-0.8-2.7-1.3-4.3-1.3
					c-4.2,0-7.7,3.5-7.7,7.7c0,2.4,1.1,4.5,2.7,5.9c-0.4,0.8-0.8,1.7-1.2,2.6c-0.2,0.6,0,1.2,0.6,1.4c0.1,0.1,0.3,0.1,0.4,0.1
					c0.4,0,0.8-0.3,1-0.7c0.3-0.8,0.6-1.5,1-2.2c0.9,0.4,2,0.6,3.1,0.6c4.2,0,7.7-3.5,7.7-7.7c0-1.9-0.7-3.6-1.8-4.9
					c0.7-0.6,1.5-1.2,2.2-1.8C51.3,30.3,51.4,29.6,51.1,29.1z M48.2,37.3c0,3-2.5,5.5-5.5,5.5c-0.7,0-1.4-0.1-2.1-0.4
					c-0.7-0.3-1.3-0.7-1.8-1.2c-1-1-1.6-2.4-1.6-3.9c0-3,2.5-5.5,5.5-5.5c1,0,1.9,0.3,2.6,0.7c0.7,0.4,1.2,0.8,1.7,1.4
					C47.7,34.9,48.2,36,48.2,37.3z"></path>
				<path class="st0" d="M37.6,47.6c-0.2,0-0.4,0-0.5-0.1c-0.4-0.1-0.6-0.4-0.8-0.8c-0.1-0.3-0.1-0.7,0-1.1c0.3-0.7,0.6-1.5,1.1-2.4
					c-1.7-1.5-2.7-3.7-2.7-6c0-4.4,3.6-8,8-8c1.5,0,3,0.4,4.3,1.2c0.8-0.7,1.6-1.4,2.4-1.9c0.3-0.2,0.7-0.3,1-0.3
					c0.4,0.1,0.7,0.2,0.9,0.6v0c0.5,0.6,0.3,1.5-0.3,2c-0.6,0.5-1.3,1-2,1.6c1.1,1.4,1.6,3.1,1.6,4.8c0,4.4-3.6,8-8,8
					c-1,0-2-0.2-2.9-0.6c-0.3,0.7-0.6,1.3-0.9,1.9C38.7,47.3,38.2,47.6,37.6,47.6z M42.7,29.9c-4.1,0-7.4,3.3-7.4,7.4
					c0,2.2,1,4.2,2.6,5.6l0.2,0.2L38,43.3c-0.5,1-0.8,1.8-1.2,2.5c-0.1,0.2-0.1,0.4,0,0.6c0.1,0.2,0.2,0.3,0.4,0.4
					c0.4,0.2,0.9,0,1-0.4c0.3-0.7,0.6-1.4,1-2.2l0.1-0.3l0.3,0.1c0.9,0.4,1.9,0.6,2.9,0.6c4.1,0,7.4-3.3,7.4-7.4
					c0-1.7-0.6-3.4-1.7-4.7l-0.2-0.2l0.2-0.2c0.8-0.7,1.5-1.3,2.2-1.8c0.3-0.3,0.4-0.8,0.2-1.1l0,0c-0.1-0.2-0.3-0.3-0.5-0.3
					c-0.2,0-0.4,0-0.6,0.1c-0.8,0.6-1.6,1.3-2.5,2.1L47,31.3l-0.2-0.1C45.6,30.4,44.2,29.9,42.7,29.9z M42.7,43.1
					c-0.7,0-1.5-0.1-2.2-0.4c-0.7-0.3-1.4-0.7-1.9-1.3c-1.1-1.1-1.7-2.6-1.7-4.1c0-3.2,2.6-5.8,5.8-5.8c1,0,1.9,0.3,2.8,0.7
					c0.7,0.4,1.3,0.9,1.8,1.5c0.8,1,1.2,2.3,1.2,3.6C48.5,40.5,45.9,43.1,42.7,43.1z M42.7,32.1c-2.9,0-5.2,2.3-5.2,5.2
					c0,1.4,0.5,2.7,1.5,3.7c0.5,0.5,1.1,0.9,1.7,1.1c0.6,0.3,1.3,0.4,1.9,0.4c2.9,0,5.2-2.3,5.2-5.2c0-1.1-0.4-2.2-1.1-3.2
					c-0.4-0.6-1-1-1.6-1.3C44.4,32.4,43.5,32.1,42.7,32.1z"></path>
			</g>
			<g>
				<g>
					<path class="st0" d="M55.9,59.3c0.4-2.4,1.2-4.7,2.3-6.8c0.3-0.5,0.1-1.2-0.4-1.5c-0.5-0.3-1.2-0.1-1.5,0.4
						c-1.3,2.3-2.2,4.8-2.6,7.5l0,0c-0.1,0.6,0.3,1.1,0.9,1.2C55.3,60.4,55.8,59.9,55.9,59.3z"></path>
					<path class="st0" d="M54.8,60.6c-0.1,0-0.1,0-0.2,0c-0.4-0.1-0.7-0.3-0.9-0.6c-0.2-0.3-0.3-0.7-0.3-1c0.4-2.7,1.3-5.3,2.6-7.6
						c0.4-0.7,1.2-0.9,1.9-0.6c0.7,0.4,0.9,1.2,0.6,1.9c-1.1,2.1-1.9,4.3-2.3,6.7v0C56.1,60.1,55.5,60.6,54.8,60.6z M57.3,51.2
						c-0.3,0-0.5,0.1-0.7,0.4c-1.3,2.3-2.1,4.8-2.5,7.4c0,0.2,0,0.4,0.1,0.6c0.1,0.2,0.3,0.3,0.5,0.3c0.4,0.1,0.8-0.2,0.9-0.7
						c0.4-2.4,1.2-4.8,2.4-6.9c0.2-0.4,0.1-0.9-0.3-1.1C57.6,51.3,57.4,51.2,57.3,51.2z"></path>
				</g>
				<g>
					<path class="st0" d="M95.8,61.3c0.1,0,0.2,0,0.3,0c0.6-0.1,1-0.6,1-1.2c-0.3-2.7-1.1-5.2-2.3-7.7c-0.3-0.5-0.9-0.8-1.5-0.5
						c-0.5,0.3-0.8,0.9-0.5,1.5c1.1,2.2,1.8,4.5,2.1,6.9C95,60.9,95.3,61.3,95.8,61.3z"></path>
					<path class="st0" d="M96,61.7c-0.1,0-0.2,0-0.2,0c-0.6-0.1-1.1-0.6-1.2-1.2c-0.3-2.4-0.9-4.6-2-6.8c-0.4-0.7-0.1-1.6,0.6-1.9
						c0.3-0.2,0.7-0.2,1.1-0.1c0.4,0.1,0.7,0.4,0.8,0.7c1.2,2.4,2,5.1,2.3,7.8c0.1,0.8-0.5,1.5-1.3,1.6C96.1,61.7,96,61.7,96,61.7z
						 M93.8,52.2c-0.1,0-0.2,0-0.4,0.1c-0.4,0.2-0.5,0.7-0.3,1.1c1.1,2.2,1.8,4.5,2.1,7c0,0.4,0.3,0.6,0.7,0.7l0,0
						c0.1,0,0.1,0,0.2,0c0.2,0,0.4-0.1,0.5-0.3c0.1-0.2,0.2-0.4,0.2-0.6c-0.3-2.6-1-5.2-2.2-7.5c-0.1-0.2-0.3-0.3-0.5-0.4
						C94,52.2,93.9,52.2,93.8,52.2z"></path>
				</g>
				<g>
					<path class="st0" d="M92.8,73.9c0.1,0.1,0.2,0.1,0.4,0.1c0.4,0.1,0.9-0.1,1.1-0.5c1.3-2.3,2.2-4.9,2.7-7.5l0-0.1
						c0.1-0.6-0.3-1.1-0.9-1.2c-0.6-0.1-1.2,0.4-1.3,1c-0.4,2.4-1.2,4.7-2.4,6.8C92,72.9,92.2,73.6,92.8,73.9z"></path>
					<path class="st0" d="M93.3,74.3c-0.1,0-0.1,0-0.2,0c-0.2,0-0.3-0.1-0.5-0.2v0c-0.7-0.4-0.9-1.3-0.5-1.9c1.2-2.1,2-4.3,2.4-6.7
						c0.1-0.4,0.3-0.7,0.6-0.9c0.3-0.2,0.7-0.3,1.1-0.3c0.8,0.1,1.3,0.8,1.2,1.6l0,0.1c-0.4,2.7-1.4,5.3-2.7,7.6
						C94.3,74.1,93.8,74.3,93.3,74.3z M92.9,73.6c0.1,0,0.2,0.1,0.3,0.1c0.3,0.1,0.6-0.1,0.8-0.4c1.3-2.3,2.2-4.8,2.6-7.4l0-0.1
						c0.1-0.4-0.2-0.8-0.7-0.9c-0.4-0.1-0.8,0.2-0.9,0.7c-0.4,2.4-1.2,4.8-2.4,6.9C92.4,72.9,92.5,73.4,92.9,73.6L92.9,73.6z"></path>
				</g>
				<g>
					<path class="st0" d="M84.2,44.9c2.2,1.1,4.1,2.6,5.7,4.4c0.2,0.2,0.4,0.3,0.6,0.3c0.3,0.1,0.7,0,0.9-0.3
						c0.5-0.4,0.5-1.1,0.1-1.6c-1.8-2-3.9-3.6-6.3-4.9c-0.5-0.3-1.2-0.1-1.5,0.5C83.5,43.9,83.7,44.6,84.2,44.9z"></path>
					<path class="st0" d="M90.8,49.9c-0.1,0-0.2,0-0.2,0c-0.3-0.1-0.6-0.2-0.8-0.5c-1.6-1.8-3.5-3.2-5.6-4.3l0,0
						c-0.7-0.4-1-1.2-0.6-1.9c0.2-0.3,0.5-0.6,0.8-0.7c0.4-0.1,0.7-0.1,1.1,0.1c2.4,1.2,4.6,2.9,6.4,4.9c0.3,0.3,0.4,0.6,0.4,1
						c0,0.4-0.2,0.7-0.5,1C91.4,49.8,91.1,49.9,90.8,49.9z M84.4,44.6c2.2,1.1,4.1,2.6,5.8,4.4c0.1,0.1,0.3,0.2,0.5,0.2
						c0.2,0,0.5,0,0.7-0.2c0.2-0.1,0.2-0.3,0.3-0.5c0-0.2-0.1-0.4-0.2-0.6c-1.8-2-3.9-3.6-6.2-4.8c-0.2-0.1-0.4-0.1-0.6,0
						c-0.2,0.1-0.4,0.2-0.5,0.4C83.8,43.9,84,44.4,84.4,44.6L84.4,44.6z"></path>
				</g>
				<g>
					<path class="st0" d="M83.6,82.6c0.2,0,0.4,0,0.6-0.1c2.5-1.1,4.7-2.6,6.6-4.5c0.4-0.4,0.4-1.1,0-1.6c-0.4-0.4-1.1-0.4-1.6,0
						c-1.7,1.7-3.7,3.1-5.9,4.1c-0.6,0.2-0.8,0.9-0.6,1.5C82.9,82.3,83.2,82.5,83.6,82.6z"></path>
					<path class="st0" d="M83.7,82.9c-0.1,0-0.1,0-0.2,0c-0.5-0.1-0.9-0.4-1.1-0.8c-0.3-0.7,0-1.6,0.7-1.9c2.2-1,4.1-2.3,5.8-4
						c0.3-0.3,0.6-0.4,1-0.4c0,0,0,0,0,0c0.4,0,0.7,0.1,1,0.4c0.3,0.3,0.4,0.6,0.4,1c0,0.4-0.1,0.7-0.4,1c-1.9,1.9-4.2,3.5-6.7,4.6
						C84.1,82.9,83.9,82.9,83.7,82.9z M90,76.4c-0.2,0-0.4,0.1-0.6,0.2c-1.7,1.7-3.8,3.1-6,4.1c-0.4,0.2-0.6,0.6-0.4,1
						c0.1,0.2,0.3,0.4,0.6,0.5h0c0.1,0,0.3,0,0.4-0.1c2.4-1.1,4.6-2.6,6.5-4.4c0.1-0.1,0.2-0.3,0.2-0.6c0-0.2-0.1-0.4-0.2-0.6
						C90.4,76.5,90.2,76.4,90,76.4C90,76.4,90,76.4,90,76.4z"></path>
				</g>
				<g>
					<path class="st0" d="M79.6,82.9c-0.1-0.6-0.7-1-1.3-0.9c-2,0.3-4.1,0.3-6.1,0c-0.3-0.1-0.7-0.1-1-0.2c-0.6-0.1-1.2,0.2-1.3,0.8
						c-0.1,0.6,0.2,1.2,0.8,1.3c0.4,0.1,0.7,0.2,1.1,0.2c2.3,0.4,4.6,0.4,6.9,0C79.3,84,79.7,83.5,79.6,82.9z"></path>
					<path class="st0" d="M75.3,84.7c-1.2,0-2.4-0.1-3.6-0.3c-0.4-0.1-0.8-0.2-1.2-0.3c-0.4-0.1-0.7-0.3-0.9-0.6
						c-0.2-0.3-0.3-0.7-0.2-1.1c0.1-0.4,0.3-0.7,0.6-0.9c0.3-0.2,0.7-0.3,1.1-0.2c0.3,0.1,0.7,0.2,1,0.2c2,0.3,4,0.3,6,0
						c0.4-0.1,0.7,0,1.1,0.3c0.3,0.2,0.5,0.6,0.6,0.9l0,0c0.1,0.4,0,0.7-0.3,1.1c-0.2,0.3-0.6,0.5-0.9,0.6
						C77.6,84.6,76.5,84.7,75.3,84.7z M70.9,82c-0.1,0-0.3,0-0.4,0.1c-0.2,0.1-0.3,0.3-0.4,0.5c0,0.2,0,0.4,0.1,0.6
						c0.1,0.2,0.3,0.3,0.5,0.4c0.4,0.1,0.7,0.2,1.1,0.2c2.2,0.4,4.5,0.4,6.8,0c0.2,0,0.4-0.1,0.5-0.3c0.1-0.2,0.2-0.4,0.1-0.6l0,0
						c0-0.2-0.1-0.4-0.3-0.5c-0.2-0.1-0.4-0.2-0.6-0.1c-2.1,0.3-4.2,0.3-6.2,0c-0.4-0.1-0.7-0.1-1-0.2C71.1,82,71,82,70.9,82z"></path>
				</g>
				<g>
					<path class="st0" d="M66.4,42.4c-2.5,1.1-4.7,2.6-6.6,4.5c-0.4,0.4-0.4,1.1,0,1.6c0.2,0.2,0.4,0.3,0.6,0.3
						c0.3,0.1,0.7-0.1,1-0.3c1.7-1.7,3.7-3.1,5.9-4c0.6-0.2,0.8-0.9,0.6-1.4C67.6,42.4,66.9,42.1,66.4,42.4z"></path>
					<path class="st0" d="M60.5,49.1c-0.1,0-0.1,0-0.2,0c-0.3,0-0.6-0.2-0.8-0.4c-0.6-0.5-0.6-1.4,0-2c1.9-2,4.2-3.5,6.7-4.6l0,0
						c0.3-0.1,0.7-0.2,1.1,0c0.4,0.1,0.6,0.4,0.8,0.8c0.1,0.3,0.2,0.7,0,1.1c-0.1,0.4-0.4,0.6-0.8,0.8c-2.2,0.9-4.1,2.3-5.8,4
						C61.3,48.9,60.9,49.1,60.5,49.1z M66.5,42.7c-2.5,1-4.6,2.5-6.5,4.5c-0.3,0.3-0.3,0.8,0,1.1c0.1,0.1,0.3,0.2,0.4,0.2
						c0.3,0,0.5,0,0.7-0.2c1.7-1.8,3.7-3.1,6-4.1c0.2-0.1,0.3-0.2,0.4-0.4c0.1-0.2,0.1-0.4,0-0.6c-0.1-0.2-0.2-0.3-0.4-0.4
						C66.9,42.6,66.7,42.6,66.5,42.7L66.5,42.7z"></path>
				</g>
				<g>
					<path class="st0" d="M71.8,43c0.1,0,0.2,0,0.3,0c2-0.3,4.1-0.3,6.3,0c0.3,0.1,0.6,0.1,1,0.2c0.6,0.1,1.2-0.3,1.3-0.8
						c0.1-0.6-0.3-1.2-0.8-1.3c-0.3-0.1-0.7-0.1-1.1-0.2c-2.4-0.3-4.7-0.3-6.9,0c-0.6,0.1-1,0.6-0.9,1.2C71,42.6,71.4,43,71.8,43z"></path>
					<path class="st0" d="M79.6,43.5c-0.1,0-0.2,0-0.3,0c-0.3-0.1-0.6-0.1-0.9-0.2c-2.1-0.3-4.2-0.2-6.2,0c-0.1,0-0.3,0-0.4,0l0,0
						c-0.6-0.1-1.1-0.6-1.2-1.2c-0.1-0.4,0-0.7,0.3-1c0.2-0.3,0.6-0.5,0.9-0.6c2.2-0.3,4.5-0.3,7,0l0.3,0.1c0.3,0,0.5,0.1,0.8,0.2
						c0.8,0.2,1.3,0.9,1.1,1.7C80.9,43.1,80.3,43.5,79.6,43.5z M75.4,42.5c1,0,2,0.1,3.1,0.2c0.3,0.1,0.7,0.1,1,0.2
						c0.4,0.1,0.8-0.2,0.9-0.6c0.1-0.4-0.2-0.8-0.6-0.9c-0.3-0.1-0.5-0.1-0.8-0.1l-0.3-0.1c-2.3-0.3-4.6-0.3-6.8,0
						c-0.2,0-0.4,0.1-0.5,0.3c-0.1,0.2-0.2,0.4-0.1,0.6c0,0.3,0.3,0.6,0.7,0.7c0.1,0,0.2,0,0.2,0C73.2,42.6,74.3,42.5,75.4,42.5z"></path>
				</g>
				<g>
					<path class="st0" d="M66.3,80c-1.6-0.8-3-1.8-4.3-2.9c0.5-0.6,0.8-1.4,1-2.2c0.4-2.7-1.4-5.2-4.1-5.7c-0.7-0.1-1.4-0.1-2.1,0.1
						c-0.5-1.5-0.9-3.1-1-4.8c-0.1-0.6-0.6-1.1-1.2-1c-0.6,0.1-1.1,0.6-1,1.2c0.2,2,0.6,3.9,1.3,5.7c-0.8,0.7-1.4,1.7-1.6,2.9
						c-0.4,2.7,1.4,5.2,4.1,5.7c1.1,0.2,2.1,0,3-0.5c1.5,1.3,3.2,2.5,5.1,3.4c0.1,0,0.2,0.1,0.3,0.1c0.5,0.1,0.9-0.2,1.2-0.6
						C67.1,80.9,66.9,80.2,66.3,80z M57.7,76.8c-1.5-0.2-2.5-1.7-2.3-3.2c0.1-0.4,0.2-0.8,0.4-1.1c0.4-0.6,1.1-1,1.8-1.2
						c0.3,0,0.6-0.1,0.9,0c1.5,0.2,2.5,1.7,2.3,3.2c-0.1,0.4-0.2,0.7-0.4,1c-0.4,0.6-1,1-1.7,1.2C58.4,76.9,58,76.9,57.7,76.8z"></path>
					<path class="st0" d="M65.8,82.4c-0.1,0-0.2,0-0.2,0c-0.1,0-0.3-0.1-0.4-0.1c-1.8-0.9-3.5-2-5-3.3c-0.9,0.4-2,0.6-3,0.4
						c-2.9-0.5-4.8-3.2-4.4-6c0.2-1.1,0.7-2.1,1.6-2.9c-0.6-1.8-1.1-3.6-1.2-5.5c-0.1-0.8,0.5-1.5,1.3-1.5c0.8-0.1,1.5,0.5,1.5,1.3
						c0.1,1.5,0.4,3,0.9,4.4c0.6-0.1,1.3-0.2,1.9-0.1c2.9,0.5,4.8,3.2,4.4,6c-0.1,0.7-0.4,1.5-0.9,2.1c1.2,1,2.6,1.9,4,2.6
						c0.3,0.2,0.6,0.5,0.7,0.8c0.1,0.4,0.1,0.7-0.1,1.1C66.9,82.1,66.4,82.4,65.8,82.4z M60.3,78.1l0.2,0.1c1.5,1.3,3.1,2.5,5,3.4
						c0.1,0,0.1,0.1,0.2,0.1c0.3,0.1,0.7-0.1,0.8-0.4c0.1-0.2,0.1-0.4,0-0.6c-0.1-0.2-0.2-0.4-0.4-0.5v0c-1.6-0.8-3.1-1.8-4.4-2.9
						l-0.2-0.2l0.2-0.2c0.5-0.6,0.8-1.3,0.9-2.1c0.4-2.5-1.3-4.9-3.8-5.3c-0.6-0.1-1.3-0.1-1.9,0.1l-0.3,0.1l-0.1-0.3
						c-0.6-1.6-0.9-3.2-1.1-4.9c0-0.4-0.4-0.8-0.9-0.7c-0.4,0-0.8,0.4-0.7,0.9c0.2,1.9,0.6,3.8,1.3,5.6l0.1,0.2L55,70.6
						c-0.8,0.7-1.4,1.7-1.5,2.7c-0.4,2.5,1.3,4.9,3.8,5.3c0.9,0.2,1.9,0,2.8-0.4L60.3,78.1z M58.1,77.2c-0.2,0-0.3,0-0.5,0l0,0
						c-0.8-0.1-1.5-0.6-2-1.2c-0.5-0.7-0.7-1.5-0.5-2.3c0.1-0.4,0.2-0.8,0.5-1.2c0.5-0.7,1.2-1.2,2-1.3c0.4-0.1,0.7-0.1,1,0
						c0.8,0.1,1.5,0.6,2,1.2c0.5,0.7,0.7,1.5,0.5,2.3c-0.1,0.4-0.2,0.8-0.4,1.2c-0.4,0.7-1.1,1.2-1.9,1.3
						C58.5,77.1,58.3,77.2,58.1,77.2z M58.1,71.7c-0.1,0-0.3,0-0.4,0c-0.7,0.1-1.3,0.5-1.6,1c-0.2,0.3-0.3,0.6-0.4,1
						c-0.1,0.6,0,1.3,0.4,1.8c0.4,0.5,0.9,0.9,1.6,1v0c0.3,0,0.6,0,0.9,0c0.6-0.1,1.2-0.5,1.5-1.1c0.2-0.3,0.3-0.6,0.4-0.9
						c0.1-0.6,0-1.3-0.4-1.8c-0.4-0.5-0.9-0.9-1.6-1C58.4,71.7,58.3,71.7,58.1,71.7z"></path>
				</g>
			</g>
			<g>
				<g>
					<path class="st0" d="M99.5,41.7c-0.4-0.5-1.1-0.5-1.6-0.1c-0.5,0.4-0.5,1.1-0.1,1.6c1.6,1.8,2.9,3.9,4,6
						c0.2,0.3,0.5,0.6,0.8,0.6c0.2,0,0.4,0,0.6-0.1c0.5-0.3,0.8-0.9,0.5-1.5C102.7,45.9,101.2,43.7,99.5,41.7z"></path>
					<path class="st0" d="M102.8,50.1c-0.1,0-0.1,0-0.2,0c-0.5-0.1-0.9-0.3-1.1-0.8c-1.1-2.1-2.4-4.1-4-6c-0.2-0.3-0.4-0.7-0.3-1
						c0-0.4,0.2-0.7,0.5-1c0.6-0.5,1.5-0.4,2,0.2h0c1.7,2,3.2,4.2,4.3,6.5c0.2,0.3,0.2,0.7,0.1,1.1c-0.1,0.4-0.4,0.6-0.7,0.8
						C103.3,50,103.1,50.1,102.8,50.1z M98.7,41.6c-0.2,0-0.4,0.1-0.5,0.2c-0.3,0.3-0.4,0.8-0.1,1.1c1.6,1.9,3,3.9,4,6.1
						c0.1,0.2,0.3,0.4,0.6,0.4c0.2,0,0.3,0,0.5-0.1c0.2-0.1,0.3-0.3,0.4-0.5c0.1-0.2,0.1-0.4,0-0.6c-1.2-2.3-2.6-4.5-4.3-6.4l0,0
						C99.1,41.7,98.9,41.6,98.7,41.6z"></path>
				</g>
				<g>
					<path class="st0" d="M103.5,74.8c0.1,0,0.2,0.1,0.3,0.1c0.5,0.1,1-0.2,1.2-0.7c1-2.4,1.6-4.9,2-7.5l0-0.1
						c0.1-0.6-0.3-1.2-0.9-1.2c-0.6-0.1-1.2,0.3-1.2,0.9l0,0.1c-0.3,2.4-0.9,4.8-1.8,7C102.7,74,103,74.6,103.5,74.8z"></path>
					<path class="st0" d="M103.9,75.2c-0.1,0-0.1,0-0.2,0c-0.1,0-0.2,0-0.3-0.1l0,0c-0.7-0.3-1.1-1.1-0.8-1.8
						c0.9-2.2,1.5-4.5,1.8-6.9l0-0.1c0.1-0.4,0.2-0.7,0.5-0.9c0.3-0.2,0.7-0.3,1-0.3c0.4,0,0.7,0.2,0.9,0.5c0.2,0.3,0.3,0.7,0.3,1
						l0,0.1c-0.4,2.6-1,5.2-2,7.6C105,74.9,104.5,75.2,103.9,75.2z M105.8,65.6c-0.2,0-0.3,0.1-0.5,0.2c-0.2,0.1-0.3,0.3-0.3,0.5
						l0,0.1c-0.3,2.4-0.9,4.8-1.8,7.1c-0.2,0.4,0,0.9,0.4,1h0c0.1,0,0.1,0,0.2,0c0.4,0,0.7-0.2,0.8-0.5c0.9-2.4,1.6-4.9,1.9-7.5
						l0-0.1c0-0.2,0-0.4-0.2-0.6c-0.1-0.2-0.3-0.3-0.5-0.3C105.9,65.6,105.9,65.6,105.8,65.6z"></path>
				</g>
				<g>
					<path class="st0" d="M94.2,39.5c0.2,0.1,0.4,0.2,0.6,0.2c0.4,0,0.7-0.1,1-0.4c0.4-0.5,0.3-1.2-0.1-1.5c-2-1.7-4.2-3.1-6.6-4.2
						c-0.6-0.3-1.2,0-1.5,0.5c-0.3,0.5,0,1.2,0.5,1.5C90.2,36.7,92.3,38,94.2,39.5z"></path>
					<path class="st0" d="M94.9,40.1c-0.1,0-0.1,0-0.2,0c-0.3,0-0.5-0.1-0.7-0.3l0,0c-1.8-1.5-3.9-2.8-6-3.8c-0.7-0.3-1-1.2-0.7-1.9
						c0.3-0.7,1.2-1,1.9-0.7c2.4,1.1,4.6,2.5,6.6,4.2c0.6,0.5,0.7,1.4,0.2,2C95.7,39.9,95.3,40.1,94.9,40.1z M94.4,39.3
						c0.1,0.1,0.2,0.2,0.4,0.2c0.3,0,0.5-0.1,0.7-0.3c0.3-0.3,0.2-0.8-0.1-1.1c-2-1.6-4.2-3-6.5-4.1c-0.4-0.2-0.9,0-1,0.4
						c-0.2,0.4,0,0.9,0.4,1C90.4,36.4,92.5,37.7,94.4,39.3L94.4,39.3z"></path>
				</g>
				<g>
					<path class="st0" d="M105,61.1c0,0.5,0.4,1,1,1c0.1,0,0.1,0,0.2,0c0.6,0,1.1-0.5,1.1-1.1c-0.1-2.6-0.5-5.2-1.3-7.7
						c-0.2-0.6-0.8-0.9-1.4-0.7c-0.6,0.2-0.9,0.8-0.7,1.4C104.5,56.3,104.9,58.7,105,61.1z"></path>
					<path class="st0" d="M106.1,62.5c-0.1,0-0.1,0-0.2,0c-0.7-0.1-1.2-0.7-1.2-1.3v0c-0.1-2.4-0.5-4.8-1.2-7.1
						c-0.2-0.7,0.2-1.5,1-1.8c0.4-0.1,0.7-0.1,1.1,0.1c0.3,0.2,0.6,0.5,0.7,0.8c0.8,2.5,1.2,5.1,1.3,7.7c0,0.4-0.1,0.7-0.4,1
						C106.9,62.3,106.5,62.5,106.1,62.5C106.1,62.5,106.1,62.5,106.1,62.5z M105.3,61.1c0,0.4,0.3,0.7,0.7,0.7c0,0,0.1,0,0.1,0
						c0.2,0,0.4-0.1,0.5-0.3c0.1-0.2,0.2-0.4,0.2-0.6c-0.1-2.6-0.5-5.1-1.3-7.6c-0.1-0.2-0.2-0.4-0.4-0.5c-0.2-0.1-0.4-0.1-0.6-0.1
						c-0.4,0.1-0.7,0.6-0.5,1C104.8,56.2,105.2,58.7,105.3,61.1L105.3,61.1z"></path>
				</g>
				<g>
					<path class="st0" d="M83.4,33.8c0.5,0.1,1.1-0.3,1.2-0.8c0.2-0.6-0.2-1.2-0.8-1.4c-1.4-0.4-2.8-0.7-4.3-0.9c0,0,0,0,0,0
						c-1.1-0.1-2.3-0.2-3.4-0.2c-0.6,0-1.1,0.5-1.1,1.1c0,0.6,0.5,1.1,1.1,1.1c1.1,0,2.1,0.1,3.2,0.2c1.3,0.2,2.7,0.5,4,0.8
						C83.3,33.8,83.3,33.8,83.4,33.8z"></path>
					<path class="st0" d="M83.5,34.2c-0.1,0-0.1,0-0.2,0c-0.1,0-0.1,0-0.2,0c-1.3-0.4-2.6-0.6-3.9-0.8c-1-0.1-2.1-0.2-3.1-0.2
						c-0.8,0-1.4-0.7-1.4-1.4c0-0.8,0.6-1.4,1.4-1.4c0,0,0,0,0,0c1.1,0,2.3,0.1,3.4,0.2c1.5,0.2,3,0.5,4.4,0.9c0.8,0.2,1.2,1,1,1.7
						C84.7,33.8,84.1,34.2,83.5,34.2z M76.1,31c-0.4,0-0.8,0.3-0.8,0.8c0,0.4,0.3,0.8,0.8,0.8c1.1,0,2.1,0.1,3.2,0.2
						c1.4,0.2,2.7,0.5,4,0.8c0,0,0.1,0,0.1,0l0,0c0.4,0,0.8-0.2,0.9-0.6c0.1-0.4-0.1-0.8-0.5-1c-1.4-0.4-2.8-0.7-4.2-0.9
						C78.3,31,77.2,31,76.1,31C76.1,31,76.1,31,76.1,31z"></path>
				</g>
				<g>
					<path class="st0" d="M45.2,56.3c-0.6-0.1-1.2,0.3-1.3,0.9c-0.1,0.3-0.1,0.7-0.2,1c-0.3,2.2-0.4,4.5-0.2,6.7c0,0.5,0.4,0.9,1,1
						c0.1,0,0.1,0,0.2,0c0.6,0,1.1-0.6,1-1.2c-0.1-2.1-0.1-4.2,0.2-6.3c0-0.3,0.1-0.6,0.1-1C46.2,57,45.8,56.4,45.2,56.3z"></path>
					<path class="st0" d="M44.7,66.3c-0.1,0-0.1,0-0.2,0c-0.7-0.1-1.2-0.6-1.2-1.3c-0.1-2.3-0.1-4.5,0.2-6.8c0-0.3,0.1-0.7,0.2-1
						c0.1-0.4,0.3-0.7,0.6-0.9c0.3-0.2,0.7-0.3,1-0.2c0.8,0.1,1.3,0.9,1.2,1.6c-0.1,0.3-0.1,0.6-0.1,1c-0.3,2.1-0.4,4.2-0.2,6.2
						C46.2,65.6,45.6,66.2,44.7,66.3C44.8,66.3,44.7,66.3,44.7,66.3z M45.1,56.6c-0.1,0-0.3,0-0.4,0.1c-0.2,0.1-0.3,0.3-0.3,0.5
						c-0.1,0.3-0.1,0.7-0.2,1c-0.3,2.2-0.4,4.4-0.2,6.7c0,0.4,0.3,0.7,0.7,0.7c0.1,0,0.1,0,0.2,0c0.4,0,0.8-0.4,0.7-0.8
						c-0.1-2.1-0.1-4.2,0.2-6.3c0-0.3,0.1-0.7,0.1-1c0.1-0.4-0.2-0.8-0.6-0.9l0,0C45.1,56.6,45.1,56.6,45.1,56.6z"></path>
				</g>
				<g>
					<path class="st0" d="M71.8,31.9c-0.1-0.6-0.6-1-1.2-0.9c-2.6,0.4-5.2,1-7.5,1.9c-0.6,0.2-0.8,0.9-0.6,1.4
						c0.2,0.4,0.5,0.6,0.9,0.7c0.2,0,0.4,0,0.5-0.1c2.2-0.9,4.6-1.5,7-1.8C71.5,33.1,71.9,32.5,71.8,31.9z"></path>
					<path class="st0" d="M63.4,35.4c-0.1,0-0.1,0-0.2,0c-0.5-0.1-0.9-0.4-1.1-0.9c-0.1-0.4-0.1-0.7,0-1.1c0.2-0.3,0.4-0.6,0.8-0.8
						c2.4-0.9,4.9-1.6,7.6-2c0.4-0.1,0.7,0,1,0.3c0.3,0.2,0.5,0.6,0.6,0.9c0.1,0.4,0,0.7-0.3,1c-0.2,0.3-0.6,0.5-0.9,0.5
						c-2.4,0.3-4.8,0.9-6.9,1.8C63.8,35.3,63.6,35.4,63.4,35.4z M70.7,31.3c0,0-0.1,0-0.1,0c-2.6,0.4-5.1,1-7.4,1.9
						c-0.2,0.1-0.3,0.2-0.4,0.4c-0.1,0.2-0.1,0.4,0,0.6c0.1,0.3,0.3,0.5,0.6,0.5c0.1,0,0.3,0,0.4,0c2.2-0.9,4.6-1.5,7.1-1.8
						c0.2,0,0.4-0.1,0.5-0.3c0.1-0.2,0.2-0.4,0.2-0.6v0c0-0.2-0.1-0.4-0.3-0.5C71,31.3,70.9,31.3,70.7,31.3z"></path>
				</g>
				<g>
					<path class="st0" d="M67.9,93.4c0.5,0.1,1.1-0.3,1.2-0.8c0.2-0.6-0.2-1.2-0.8-1.3c-2.4-0.6-4.7-1.5-6.8-2.5
						c-0.5-0.3-1.2-0.1-1.5,0.5c-0.3,0.5-0.1,1.2,0.5,1.5c2.2,1.1,4.7,2,7.3,2.7C67.8,93.4,67.9,93.4,67.9,93.4z"></path>
					<path class="st0" d="M68.1,93.7c-0.1,0-0.1,0-0.2,0l0,0c-0.1,0-0.1,0-0.2,0c-2.6-0.7-5.1-1.6-7.3-2.7c-0.7-0.3-1-1.2-0.6-1.9
						c0.2-0.3,0.5-0.6,0.8-0.7c0.4-0.1,0.7-0.1,1.1,0.1c2.1,1,4.4,1.9,6.8,2.5c0.8,0.2,1.2,1,1,1.7C69.3,93.3,68.7,93.7,68.1,93.7z
						 M61,88.9c-0.1,0-0.2,0-0.2,0c-0.2,0.1-0.4,0.2-0.5,0.4c-0.2,0.4,0,0.9,0.4,1.1c2.2,1.1,4.6,2,7.2,2.7c0,0,0.1,0,0.1,0l0,0
						c0.4,0,0.8-0.2,0.9-0.6c0.1-0.4-0.1-0.8-0.6-1c-2.4-0.6-4.8-1.5-6.9-2.5C61.3,89,61.2,88.9,61,88.9z"></path>
				</g>
				<g>
					<path class="st0" d="M50.2,82.4c1.6,2,3.5,3.8,5.6,5.4c0.2,0.1,0.3,0.2,0.5,0.2c0.4,0.1,0.8-0.1,1-0.4c0.4-0.5,0.3-1.2-0.2-1.5
						c-2-1.4-3.7-3.1-5.2-5c-0.4-0.5-1.1-0.6-1.5-0.2C49.9,81.2,49.8,81.9,50.2,82.4z"></path>
					<path class="st0" d="M56.5,88.3c-0.1,0-0.1,0-0.2,0c-0.2,0-0.5-0.1-0.7-0.3c-2.1-1.6-4-3.4-5.7-5.5l0,0c-0.5-0.6-0.4-1.5,0.2-2
						c0.6-0.5,1.5-0.4,2,0.2c1.5,1.9,3.2,3.5,5.1,5c0.6,0.5,0.8,1.4,0.3,2C57.3,88.1,56.9,88.3,56.5,88.3z M50.4,82.2
						c1.6,2,3.5,3.8,5.5,5.3c0.1,0.1,0.2,0.1,0.4,0.1c0.3,0,0.6-0.1,0.7-0.3c0.3-0.3,0.2-0.8-0.2-1.1c-2-1.5-3.7-3.2-5.3-5.1
						c-0.3-0.3-0.8-0.4-1.1-0.1C50.2,81.4,50.2,81.9,50.4,82.2L50.4,82.2z"></path>
				</g>
				<g>
					<path class="st0" d="M46.6,69.9c-0.1-0.6-0.7-1-1.3-0.8c-0.6,0.1-1,0.7-0.8,1.3c0.6,2.6,1.5,5,2.7,7.3c0.2,0.3,0.5,0.5,0.8,0.6
						c0.2,0,0.4,0,0.7-0.1c0.5-0.3,0.7-0.9,0.5-1.5C48,74.6,47.1,72.3,46.6,69.9z"></path>
					<path class="st0" d="M48.1,78.6c-0.1,0-0.1,0-0.2,0c-0.5-0.1-0.9-0.3-1.1-0.7c-1.2-2.3-2.1-4.8-2.8-7.4c-0.1-0.4,0-0.7,0.2-1.1
						c0.2-0.3,0.5-0.5,0.9-0.6c0.8-0.2,1.5,0.3,1.7,1l0,0c0.6,2.4,1.4,4.6,2.5,6.7c0.2,0.3,0.2,0.7,0.1,1.1
						c-0.1,0.4-0.4,0.7-0.7,0.8C48.6,78.6,48.4,78.6,48.1,78.6z M45.5,69.4c-0.1,0-0.1,0-0.2,0c-0.2,0-0.4,0.2-0.5,0.4
						c-0.1,0.2-0.1,0.4-0.1,0.6c0.6,2.5,1.5,5,2.7,7.2c0.1,0.2,0.3,0.4,0.6,0.4c0.2,0,0.3,0,0.5-0.1c0.2-0.1,0.3-0.3,0.4-0.5
						s0-0.4-0.1-0.6c-1.1-2.1-2-4.4-2.6-6.8l0,0C46.2,69.7,45.8,69.4,45.5,69.4z"></path>
				</g>
				<g>
					<path class="st0" d="M50.2,44.5c-0.5-0.3-1.2-0.2-1.5,0.3c-1.4,2.2-2.5,4.5-3.4,7c-0.2,0.6,0.1,1.2,0.7,1.4c0.1,0,0.1,0,0.2,0
						c0.5,0.1,1-0.2,1.2-0.7c0.8-2.3,1.8-4.5,3.1-6.5C50.9,45.5,50.7,44.8,50.2,44.5z"></path>
					<path class="st0" d="M46.4,53.6c-0.1,0-0.1,0-0.2,0c-0.1,0-0.2,0-0.3-0.1c-0.4-0.1-0.6-0.4-0.8-0.7c-0.2-0.3-0.2-0.7-0.1-1.1
						c0.9-2.5,2-4.9,3.4-7.1c0.2-0.3,0.5-0.5,0.9-0.6c0.4-0.1,0.7,0,1.1,0.2l0,0c0.3,0.2,0.5,0.5,0.6,0.9c0.1,0.4,0,0.7-0.2,1.1
						c-1.3,2-2.3,4.2-3.1,6.5C47.5,53.2,47,53.6,46.4,53.6z M49.6,44.6c-0.1,0-0.1,0-0.2,0c-0.2,0-0.4,0.2-0.5,0.3
						c-1.4,2.1-2.5,4.5-3.3,6.9c-0.1,0.2-0.1,0.4,0,0.6c0.1,0.2,0.3,0.3,0.5,0.4c0,0,0.1,0,0.1,0c0.4,0,0.7-0.2,0.8-0.5
						c0.8-2.3,1.9-4.6,3.2-6.6c0.1-0.2,0.1-0.4,0.1-0.6c0-0.2-0.2-0.4-0.3-0.5l0,0C49.9,44.7,49.8,44.6,49.6,44.6z"></path>
				</g>
				<g>
					<path class="st0" d="M81.9,92.6c-0.1-0.6-0.7-1-1.3-0.9c-2.4,0.4-4.8,0.6-7.2,0.4c-0.6,0-1.1,0.4-1.2,1c0,0.6,0.4,1.1,0.9,1.2
						c0,0,0.1,0,0.1,0c2.6,0.2,5.2,0,7.8-0.5C81.7,93.7,82.1,93.2,81.9,92.6z"></path>
					<path class="st0" d="M75.3,94.7c-0.7,0-1.4,0-2-0.1l-0.1,0c-0.7-0.1-1.3-0.8-1.2-1.5c0-0.4,0.2-0.7,0.5-1
						c0.3-0.3,0.6-0.4,1-0.4c2.4,0.2,4.8,0,7.1-0.4c0.4-0.1,0.7,0,1.1,0.2c0.3,0.2,0.5,0.5,0.6,0.9c0.1,0.4,0,0.7-0.2,1.1
						c-0.2,0.3-0.5,0.5-0.9,0.6C79.2,94.5,77.3,94.7,75.3,94.7z M73.4,92.4c-0.2,0-0.4,0.1-0.5,0.2c-0.2,0.1-0.3,0.3-0.3,0.5
						c0,0.4,0.3,0.8,0.7,0.8c2.6,0.2,5.2,0,7.7-0.4c0.2,0,0.4-0.2,0.5-0.3c0.1-0.2,0.2-0.4,0.1-0.6l0,0c0-0.2-0.2-0.4-0.3-0.5
						C81.1,92,80.9,92,80.7,92C78.3,92.4,75.9,92.6,73.4,92.4C73.4,92.4,73.4,92.4,73.4,92.4z"></path>
				</g>
				<g>
					<path class="st0" d="M52.1,42c0.2,0.2,0.4,0.3,0.6,0.3c0.3,0,0.7-0.1,1-0.3c1.6-1.8,3.5-3.3,5.5-4.6c0.5-0.3,0.7-1,0.3-1.5
						c-0.3-0.5-1-0.7-1.5-0.3c-2.2,1.4-4.2,3.1-6,5C51.7,40.9,51.7,41.5,52.1,42z"></path>
					<path class="st0" d="M52.9,42.6c-0.1,0-0.1,0-0.2,0c-0.3,0-0.6-0.2-0.8-0.4l0,0c-0.3-0.3-0.4-0.6-0.5-1c0-0.4,0.1-0.7,0.4-1
						c1.8-1.9,3.8-3.6,6.1-5c0.7-0.4,1.5-0.2,2,0.4c0.2,0.3,0.3,0.7,0.2,1.1c-0.1,0.4-0.3,0.7-0.6,0.9c-2,1.3-3.9,2.8-5.5,4.6
						C53.7,42.4,53.3,42.6,52.9,42.6z M52.4,41.7c0.1,0.1,0.3,0.2,0.4,0.2c0.3,0,0.5-0.1,0.7-0.2c1.7-1.8,3.6-3.4,5.6-4.7
						c0.2-0.1,0.3-0.3,0.3-0.5c0-0.2,0-0.4-0.1-0.6c-0.2-0.4-0.7-0.5-1.1-0.2c-2.2,1.4-4.2,3-5.9,4.9c-0.1,0.2-0.2,0.4-0.2,0.6
						C52.1,41.4,52.2,41.6,52.4,41.7L52.4,41.7z"></path>
				</g>
				<g>
					<path class="st0" d="M102.1,77.7c-0.5-0.3-1.2-0.2-1.5,0.4c-0.6,1-1.3,2-2.1,2.9c-0.7-0.5-1.5-0.8-2.4-0.9
						c-3.3-0.4-6.4,1.9-6.8,5.2c-0.1,1.1,0,2.2,0.4,3.1c-1.3,0.7-2.7,1.4-4.1,1.9c-0.6,0.2-0.9,0.8-0.6,1.4c0.1,0.4,0.5,0.7,0.9,0.7
						c0.2,0,0.4,0,0.5-0.1c1.6-0.6,3.1-1.3,4.5-2.1c0.9,1,2.1,1.6,3.6,1.8c3.3,0.4,6.4-1.9,6.8-5.2c0.2-1.6-0.2-3.2-1.1-4.4
						c0.8-1,1.6-2.1,2.3-3.3C102.8,78.7,102.6,78,102.1,77.7z M99.1,86.6c-0.3,2.1-2.2,3.6-4.3,3.3c-0.7-0.1-1.4-0.4-1.9-0.8
						c-0.6-0.5-1-1.1-1.2-1.8c-0.2-0.5-0.2-1.1-0.2-1.7c0.3-2.1,2.2-3.6,4.3-3.3c0.5,0.1,0.9,0.2,1.2,0.4c0.7,0.3,1.2,0.9,1.6,1.5
						C99,84.9,99.2,85.7,99.1,86.6z"></path>
					<path class="st0" d="M86,92.8c-0.1,0-0.1,0-0.2,0c-0.5-0.1-1-0.4-1.1-0.9c-0.1-0.4-0.1-0.7,0-1.1c0.2-0.3,0.4-0.6,0.8-0.7
						c1.2-0.5,2.5-1.1,3.8-1.7c-0.4-1-0.5-2-0.3-3c0.2-1.7,1.1-3.2,2.4-4.2c1.4-1,3-1.5,4.7-1.3c0.8,0.1,1.6,0.4,2.3,0.8
						c0.7-0.9,1.3-1.8,1.9-2.7c0.4-0.7,1.3-0.9,1.9-0.5v0c0.3,0.2,0.5,0.5,0.6,0.9c0.1,0.4,0,0.7-0.2,1.1c-0.7,1.1-1.4,2.1-2.2,3.1
						c0.9,1.3,1.3,2.9,1.1,4.4c-0.5,3.5-3.7,5.9-7.2,5.5c-1.4-0.2-2.6-0.8-3.6-1.7c-1.4,0.8-2.9,1.5-4.4,2
						C86.4,92.7,86.2,92.8,86,92.8z M95.3,80.3c-1.2,0-2.5,0.4-3.5,1.2c-1.2,0.9-2,2.3-2.2,3.8c-0.1,1,0,2,0.4,3l0.1,0.3l-0.2,0.1
						c-1.4,0.8-2.8,1.4-4.1,1.9c-0.2,0.1-0.4,0.2-0.4,0.4c-0.1,0.2-0.1,0.4,0,0.6c0.1,0.3,0.3,0.5,0.6,0.5c0.1,0,0.3,0,0.4,0
						c1.5-0.6,3-1.3,4.5-2.1l0.2-0.1l0.2,0.2c0.9,1,2.1,1.5,3.4,1.7c3.1,0.4,6-1.8,6.4-4.9c0.2-1.5-0.2-3-1.1-4.2l-0.1-0.2l0.2-0.2
						c0.8-1,1.6-2.1,2.3-3.2c0.1-0.2,0.1-0.4,0.1-0.6c0-0.2-0.2-0.4-0.4-0.5c-0.4-0.2-0.9-0.1-1.1,0.3c-0.6,1-1.3,2-2.1,3l-0.2,0.2
						l-0.2-0.2c-0.7-0.5-1.5-0.7-2.3-0.8C95.8,80.4,95.5,80.3,95.3,80.3z M95.3,90.2c-0.2,0-0.4,0-0.6,0c-0.7-0.1-1.4-0.4-2.1-0.9
						c-0.6-0.5-1.1-1.2-1.3-2c-0.2-0.6-0.3-1.2-0.2-1.8c0.3-2.3,2.4-3.9,4.7-3.6c0.5,0.1,0.9,0.2,1.3,0.4c0.7,0.4,1.3,0.9,1.7,1.7
						c0.5,0.8,0.6,1.7,0.5,2.6C99.1,88.7,97.4,90.2,95.3,90.2z M95.3,82.5c-1.7,0-3.3,1.3-3.5,3.1c-0.1,0.5,0,1,0.2,1.5
						c0.2,0.7,0.6,1.2,1.1,1.7c0.5,0.4,1.1,0.7,1.7,0.8c1.9,0.3,3.7-1.1,4-3l0,0c0.1-0.8,0-1.5-0.4-2.2c-0.3-0.6-0.8-1.1-1.5-1.4
						c-0.4-0.2-0.8-0.3-1.1-0.4C95.6,82.6,95.5,82.5,95.3,82.5z"></path>
				</g>
			</g>
		</g>
		<g>
			<g>
				<path class="st0" d="M69.8,72c-0.1,0-0.2-0.1-0.3-0.1c-0.3-0.2-0.5-0.6-0.5-1l0.8-4.8l-4.8-1.2c-0.4-0.1-0.7-0.4-0.7-0.8
					c-0.1-0.4,0.1-0.8,0.5-1l4.3-2.4L67,56.3c-0.2-0.4-0.1-0.8,0.2-1.1c0.3-0.3,0.7-0.4,1.1-0.2l4.5,1.8l2.2-4.4
					c0.2-0.4,0.5-0.6,0.9-0.5c0.4,0,0.7,0.3,0.8,0.7l1.4,4.7l4.8-1c0.4-0.1,0.8,0.1,1,0.4c0.2,0.3,0.2,0.8,0,1.1l-2.8,4l3.8,3.1
					c0.3,0.2,0.4,0.7,0.3,1c-0.1,0.4-0.5,0.6-0.9,0.7l-4.9,0.3l-0.1,4.9c0,0.4-0.3,0.7-0.6,0.9c-0.4,0.1-0.8,0-1.1-0.3l-3.3-3.6
					l-3.9,3C70.4,72,70.1,72.1,69.8,72z M67.9,63.6l3.3,0.8c0.5,0.1,0.8,0.6,0.7,1.1l-0.5,3.3l2.6-2.1c0.4-0.3,1-0.3,1.3,0.1
					l2.3,2.5l0-3.3c0-0.5,0.4-0.9,0.9-0.9l3.3-0.2l-2.6-2.1c-0.4-0.3-0.5-0.9-0.2-1.3l1.9-2.7l-3.3,0.7c-0.5,0.1-1-0.2-1.1-0.7
					l-1-3.2l-1.5,3c-0.2,0.4-0.8,0.7-1.2,0.5l-3.1-1.3l1.4,3c0.2,0.5,0,1-0.4,1.2L67.9,63.6z"></path>
				<path class="st0" d="M78.5,73c-0.3,0-0.7-0.1-0.9-0.4l-3.1-3.4L70.8,72c-0.3,0.2-0.7,0.3-1,0.2c-0.1,0-0.2-0.1-0.3-0.1
					c-0.4-0.3-0.7-0.8-0.6-1.3l0.7-4.6L65,65.2c-0.5-0.1-0.9-0.5-0.9-1c-0.1-0.5,0.2-1,0.6-1.2l4-2.3l-2-4.2c-0.2-0.5-0.1-1,0.2-1.4
					c0.3-0.4,0.9-0.5,1.4-0.3l4.3,1.7l2.1-4.2c0.2-0.5,0.7-0.7,1.2-0.7c0.5,0,0.9,0.4,1.1,0.9l1.3,4.4l4.5-1c0.5-0.1,1,0.1,1.3,0.5
					c0.3,0.4,0.3,1,0,1.4l-2.6,3.8l3.6,2.9c0.4,0.3,0.6,0.8,0.4,1.3c-0.2,0.5-0.6,0.8-1.1,0.9l-4.6,0.3l-0.1,4.6
					c0,0.5-0.3,1-0.8,1.1C78.8,73,78.6,73,78.5,73z M74.5,68.4l3.5,3.8c0.2,0.2,0.5,0.3,0.7,0.2c0.3-0.1,0.4-0.3,0.4-0.6l0.1-5.1
					l5.1-0.3c0.3,0,0.5-0.2,0.6-0.5c0.1-0.3,0-0.6-0.2-0.7l-4-3.3l2.9-4.2c0.2-0.2,0.2-0.5,0-0.8c-0.2-0.2-0.4-0.3-0.7-0.3l-5,1.1
					l-1.5-4.9c-0.1-0.3-0.3-0.5-0.6-0.5c-0.3,0-0.5,0.1-0.7,0.4l-2.3,4.6l-4.8-1.9c-0.3-0.1-0.6,0-0.8,0.2c-0.2,0.2-0.2,0.5-0.1,0.8
					l2.2,4.7L65,63.4c-0.2,0.1-0.4,0.4-0.3,0.7c0,0.3,0.2,0.5,0.5,0.6l5,1.2l-0.8,5.1c0,0.3,0.1,0.6,0.3,0.7c0.1,0,0.1,0.1,0.2,0.1
					c0.2,0,0.4,0,0.6-0.1L74.5,68.4z M77.8,70l-2.7-3c-0.2-0.3-0.6-0.3-0.9-0.1L71,69.5l0.6-4c0.1-0.4-0.2-0.7-0.5-0.8l-3.9-1l3.5-2
					c0.3-0.2,0.4-0.6,0.3-0.9l-1.7-3.7l3.8,1.5c0.3,0.1,0.7,0,0.9-0.3l1.8-3.6l1.2,3.9c0.1,0.3,0.4,0.5,0.8,0.5l4-0.8l-2.3,3.3
					c-0.2,0.3-0.1,0.7,0.1,0.9l3.1,2.6l-4,0.3c-0.4,0-0.6,0.3-0.6,0.7L77.8,70z M74.6,66.3c0.3,0,0.7,0.1,0.9,0.4l1.8,2l0-2.7
					c0-0.6,0.5-1.2,1.2-1.2l2.6-0.2l-2-1.7c-0.5-0.4-0.6-1.1-0.2-1.7l1.5-2.2l-2.6,0.6c-0.6,0.1-1.3-0.2-1.4-0.9l-0.8-2.5l-1.2,2.4
					c-0.3,0.6-1,0.8-1.6,0.6l-2.5-1l1.1,2.4c0.3,0.6,0,1.3-0.5,1.6l-2.3,1.3l2.6,0.6c0.6,0.2,1,0.8,0.9,1.4l-0.4,2.6l2.1-1.6
					C74,66.4,74.3,66.3,74.6,66.3z"></path>
			</g>
		</g>
	</g>
	<g>
		<path class="st0" d="M166.8,77.5h-5.4V49.1h5.4V77.5z"></path>
		<path class="st0" d="M172.7,49.1h22v5.2h-8.3v23.2H181V54.3h-8.3V49.1z"></path>
		<path class="st0" d="M223.5,49.1c1.3,0,2.6,0.2,3.8,0.7s2.2,1.2,3.1,2s1.6,1.9,2.1,3c0.5,1.2,0.7,2.4,0.7,3.7
			c0,1.3-0.2,2.5-0.7,3.7c-0.5,1.2-1.2,2.2-2.1,3s-1.9,1.5-3.1,2s-2.4,0.7-3.8,0.7h-5.2v9.5h-5.4V49.1H223.5z M223.5,62.8
			c0.6,0,1.1-0.1,1.6-0.4c0.5-0.2,1-0.6,1.3-0.9c0.4-0.4,0.7-0.8,0.9-1.3c0.2-0.5,0.4-1,0.4-1.6c0-0.6-0.1-1.1-0.4-1.6
			c-0.2-0.5-0.6-1-0.9-1.4c-0.4-0.4-0.8-0.7-1.3-0.9c-0.5-0.2-1.1-0.4-1.6-0.4h-5.2v8.5H223.5z"></path>
		<path class="st0" d="M259.7,72.3v5.2h-20V49.1h19.6v5.2h-14.2v6.1h13v5.2h-13v6.8H259.7z"></path>
		<path class="st0" d="M275.9,67.1h-4v10.4h-5.4V49.1h11.2c1.4,0,2.6,0.2,3.8,0.7c1.2,0.5,2.2,1.1,3,1.9c0.8,0.8,1.5,1.7,2,2.8
			c0.5,1.1,0.7,2.2,0.7,3.4c0,1.6-0.3,2.9-0.9,4c-0.6,1.1-1.3,1.9-2.1,2.6c-0.9,0.8-1.9,1.4-3,1.8l6.8,11.2h-6.1L275.9,67.1z
			 M271.9,61.9h5.8c1.1,0,2.1-0.4,2.9-1.1c0.8-0.8,1.2-1.7,1.2-2.7c0-1-0.4-1.9-1.2-2.7c-0.8-0.8-1.7-1.1-2.9-1.1h-5.8V61.9z"></path>
		<path class="st0" d="M299.3,54.3v7h11v5.2h-11v11h-5.4V49.1h18.9v5.2H299.3z"></path>
		<path class="st0" d="M344.1,63.3c0,2-0.4,3.9-1.1,5.7c-0.7,1.7-1.7,3.3-3,4.6c-1.2,1.3-2.7,2.3-4.4,3.1c-1.7,0.7-3.4,1.1-5.3,1.1
			c-1.9,0-3.6-0.4-5.3-1.1c-1.7-0.7-3.1-1.8-4.4-3.1c-1.2-1.3-2.2-2.8-3-4.6c-0.7-1.7-1.1-3.6-1.1-5.7c0-2,0.4-3.9,1.1-5.6
			c0.7-1.8,1.7-3.3,3-4.6c1.2-1.3,2.7-2.3,4.4-3.1c1.7-0.7,3.4-1.1,5.3-1.1c1.9,0,3.6,0.4,5.3,1.1c1.7,0.7,3.1,1.8,4.4,3.1
			c1.2,1.3,2.2,2.8,3,4.6C343.8,59.4,344.1,61.3,344.1,63.3z M322.1,63.3c0,1.3,0.2,2.6,0.7,3.7s1,2.1,1.8,2.9
			c0.8,0.8,1.6,1.5,2.6,1.9c1,0.5,2.1,0.7,3.2,0.7c1.1,0,2.2-0.2,3.2-0.7s1.9-1.1,2.7-1.9c0.8-0.8,1.4-1.8,1.8-2.9
			c0.5-1.1,0.7-2.4,0.7-3.7c0-1.4-0.2-2.6-0.7-3.7c-0.4-1.1-1-2.1-1.8-2.9c-0.8-0.8-1.6-1.5-2.7-1.9c-1-0.4-2.1-0.7-3.2-0.7
			c-1.1,0-2.2,0.2-3.2,0.7c-1,0.5-1.9,1.1-2.6,1.9c-0.8,0.8-1.3,1.8-1.8,2.9S322.1,61.9,322.1,63.3z"></path>
		<path class="st0" d="M360.1,67.1h-4v10.4h-5.4V49.1h11.2c1.4,0,2.6,0.2,3.8,0.7c1.2,0.5,2.2,1.1,3,1.9c0.8,0.8,1.5,1.7,2,2.8
			c0.5,1.1,0.7,2.2,0.7,3.4c0,1.6-0.3,2.9-0.9,4c-0.6,1.1-1.3,1.9-2.1,2.6c-0.9,0.8-1.9,1.4-3,1.8l6.8,11.2h-6.1L360.1,67.1z
			 M356,61.9h5.8c1.1,0,2.1-0.4,2.9-1.1c0.8-0.8,1.2-1.7,1.2-2.7c0-1-0.4-1.9-1.2-2.7c-0.8-0.8-1.7-1.1-2.9-1.1H356V61.9z"></path>
		<path class="st0" d="M406.9,49.1v28.4h-5.4V61.7l-7.2,15.8h-3.6l-7.2-15.8v15.8h-5.4V49.1h4.7l9.7,20.9l9.7-20.9H406.9z"></path>
		<path class="st0" d="M417.5,77.5h-5.6l10.6-28.4h5l10.6,28.4h-5.6l-2-5.9h-10.8L417.5,77.5z M428.5,66.7l-3.6-10.4l-3.6,10.4
			H428.5z"></path>
		<path class="st0" d="M465.6,49.1v28.4h-4.7L448.3,59v18.5h-5.4V49.1h4.7l12.6,18.5V49.1H465.6z"></path>
		<path class="st0" d="M477.5,63.3c0,1.3,0.2,2.6,0.7,3.7s1,2.1,1.8,2.9c0.8,0.8,1.6,1.5,2.6,1.9c1,0.5,2.1,0.7,3.2,0.7
			c1,0,1.8-0.1,2.6-0.4c0.8-0.3,1.5-0.7,2.1-1.1c0.6-0.5,1.1-1,1.5-1.6s0.7-1.2,1-1.8h5.6c-0.3,1.4-0.9,2.6-1.6,3.9
			c-0.8,1.2-1.7,2.3-2.8,3.2c-1.1,0.9-2.4,1.7-3.8,2.2c-1.4,0.6-3,0.8-4.7,0.8c-1.9,0-3.6-0.4-5.3-1.1c-1.7-0.7-3.1-1.8-4.4-3.1
			c-1.2-1.3-2.2-2.8-3-4.6c-0.7-1.7-1.1-3.6-1.1-5.7c0-2,0.4-3.9,1.1-5.6c0.7-1.8,1.7-3.3,3-4.6c1.2-1.3,2.7-2.3,4.4-3.1
			c1.7-0.7,3.4-1.1,5.3-1.1c1.6,0,3.1,0.3,4.5,0.8c1.4,0.6,2.6,1.3,3.7,2.2c1.1,0.9,2,2,2.7,3.2c0.8,1.2,1.3,2.5,1.6,3.9h-5.6
			c-0.2-0.6-0.5-1.2-0.9-1.8c-0.4-0.6-0.9-1.1-1.5-1.6c-0.6-0.5-1.3-0.8-2-1.1c-0.8-0.3-1.6-0.4-2.6-0.4c-1.1,0-2.2,0.2-3.2,0.7
			c-1,0.5-1.9,1.1-2.6,1.9c-0.8,0.8-1.3,1.8-1.8,2.9S477.5,61.9,477.5,63.3z"></path>
		<path class="st0" d="M525,72.3v5.2h-20V49.1h19.6v5.2h-14.2v6.1h13v5.2h-13v6.8H525z"></path>
	</g>
</g>
</svg>
