<svg version="1.1" id="Layer_1" xmlns="http://www.w3.org/2000/svg" x="0" y="0" viewBox="0 0 558 124" style="enable-background:new 0 0 558 124" xml:space="preserve"><style>.st0{fill:#03224e}</style><path class="st0" d="M136.6 105.9v-87c0-.9.2-1.3.7-1.3h.7c.4 0 .7.4.7 1.3v87c0 .9-.2 1.3-.7 1.3h-.7c-.5 0-.7-.4-.7-1.3zM73.7 102.4c-2.6-.2-5.1-.5-7.5-1.1-.6-.1-1.2.2-1.3.8-.1.6.2 1.2.8 1.3 2.5.6 5.1.9 7.8 1.1h.1c.6 0 1.1-.4 1.1-1s-.4-1.1-1-1.1z"/><path class="st0" d="M73.6 104.9c-2.8-.2-5.4-.6-8-1.1-.8-.2-1.2-.9-1.1-1.7.2-.8.9-1.2 1.7-1.1 2.4.5 4.9.9 7.4 1.1.4 0 .7.2 1 .5.2.3.4.7.3 1 0 .7-.6 1.3-1.3 1.3zm-7.7-3.3c-.4 0-.7.2-.8.6-.1.4.2.8.6.9 2.5.6 5.1.9 7.8 1.1.5 0 .8-.3.8-.7 0-.2-.1-.4-.2-.6s-.3-.3-.5-.3c-2.6-.2-5.1-.6-7.5-1.1 0 .1-.1.1-.2.1zM38.1 77.1c-.2-.6-.8-.9-1.4-.6-.6.2-.9.8-.6 1.4.9 2.5 2.1 4.9 3.4 7.1.2.3.6.5.9.5.2 0 .4-.1.6-.2.5-.3.7-1 .4-1.5-1.3-2.1-2.4-4.3-3.3-6.7z"/><path class="st0" d="M40.5 85.9c-.5 0-1-.3-1.2-.7-1.4-2.3-2.5-4.7-3.5-7.2-.1-.4-.1-.7 0-1.1.2-.3.4-.6.8-.7.4-.1.7-.1 1.1 0 .3.2.6.4.7.8.9 2.3 2 4.6 3.2 6.7.2.3.3.7.2 1.1-.1.4-.3.7-.6.9-.2.1-.5.2-.7.2zm-3.4-9.2h-.3c-.2.1-.4.2-.4.4-.1.2-.1.4 0 .6.9 2.5 2.1 4.9 3.4 7.1.2.4.7.5 1.1.3.2-.1.3-.3.4-.5 0-.2 0-.4-.1-.6-1.3-2.1-2.4-4.4-3.3-6.8-.1-.2-.2-.4-.4-.4-.2-.1-.3-.1-.4-.1zM34.5 60.1c.7 0 1.1-.4 1.2-1 .2-2.5.6-5 1.2-7.4.2-.6-.2-1.2-.8-1.3-.6-.2-1.2.2-1.3.8-.7 2.5-1.1 5.2-1.3 7.8-.1.6.4 1.1 1 1.1z"/><path class="st0" d="M34.6 60.4h-.1c-.4 0-.7-.2-1-.5-.2-.3-.4-.7-.3-1 .2-2.7.7-5.3 1.3-7.9.1-.4.3-.7.7-.9.3-.2.7-.2 1.1-.1.4.1.7.3.9.7.2.3.2.7.1 1.1-.6 2.4-1 4.9-1.2 7.4-.2.7-.8 1.2-1.5 1.2zm-.1-.6c.5 0 .8-.3.8-.7.2-2.5.6-5 1.3-7.5.1-.2 0-.4-.1-.6-.1-.2-.3-.3-.5-.4-.2-.1-.4 0-.6.1-.2.1-.3.3-.4.5-.7 2.5-1.1 5.1-1.3 7.8 0 .2 0 .4.2.6.2.1.4.2.6.2zM36.6 72c-.6-2.4-.9-4.9-1-7.5 0-.6-.5-1.1-1.2-1-.6 0-1.1.5-1 1.2.1 2.6.5 5.3 1.1 7.8.1.5.6.9 1.1.9h.2c.6-.3.9-.9.8-1.4z"/><path class="st0" d="M35.5 73.6c-.7 0-1.2-.5-1.4-1.1-.6-2.6-1-5.2-1.1-7.9 0-.8.6-1.4 1.3-1.5.8 0 1.4.6 1.5 1.3.1 2.5.5 5 1 7.4.1.4 0 .7-.2 1.1-.2.3-.5.5-.9.6 0 .1-.1.1-.2.1zm-1.1-9.8c-.4 0-.8.4-.7.8.1 2.6.5 5.2 1.1 7.8.1.4.5.7.9.6.2 0 .4-.2.5-.3.1-.2.1-.4.1-.6-.6-2.5-.9-5-1-7.5-.1-.5-.4-.8-.9-.8zM86.4 100.9c-2.4.7-4.9 1.2-7.4 1.4-.6.1-1.1.6-1 1.2.1.6.5 1 1.1 1h.1c2.6-.2 5.3-.7 7.8-1.5.6-.2.9-.8.8-1.4-.2-.5-.8-.9-1.4-.7z"/><path class="st0" d="M79.1 104.8c-.7 0-1.3-.6-1.4-1.3-.1-.8.5-1.5 1.3-1.5 2.5-.2 4.9-.7 7.3-1.4.4-.1.7-.1 1.1.1.3.2.6.5.7.8.1.4.1.7-.1 1.1-.2.3-.5.6-.8.7-2.6.7-5.2 1.2-7.8 1.5h-.3zm7.6-3.6h-.2c-2.4.7-4.9 1.2-7.4 1.4-.4 0-.7.4-.7.9 0 .4.4.7.8.7 2.7-.2 5.3-.7 7.8-1.5.2-.1.4-.2.5-.4.1-.2.1-.4.1-.6-.1-.2-.2-.4-.4-.5h-.5zM61 99.8c-2.4-.9-4.7-1.9-6.8-3.2-.5-.3-1.2-.1-1.5.4-.3.5-.1 1.2.4 1.5 2.2 1.3 4.6 2.5 7.2 3.4.1 0 .2.1.4.1.5 0 .9-.3 1-.7.2-.7-.1-1.3-.7-1.5z"/><path class="st0" d="M60.6 102.2c-.2 0-.3 0-.5-.1-2.5-.9-5-2.1-7.2-3.4-.7-.4-.9-1.3-.5-1.9.2-.3.5-.6.9-.6.4-.1.7 0 1.1.2 2.1 1.2 4.4 2.3 6.7 3.2.7.3 1.1 1.1.9 1.8-.2.4-.8.8-1.4.8zm-6.9-5.5h-.2c-.2.1-.4.2-.5.4-.2.4-.1.9.3 1.1 2.2 1.3 4.6 2.4 7.1 3.3.4.1.9-.1 1-.5.1-.2.1-.4 0-.6-.1-.2-.2-.3-.4-.4-2.4-.9-4.7-2-6.8-3.2-.3 0-.4-.1-.5-.1zM44.5 88.2c-.4-.5-1.1-.5-1.5-.2-.5.4-.5 1.1-.2 1.5 1.7 2 3.6 3.9 5.6 5.6.2.2.4.2.7.2.3 0 .6-.1.9-.4.4-.5.3-1.2-.2-1.5-1.9-1.5-3.7-3.2-5.3-5.2z"/><path class="st0" d="M49.1 95.8c-.3 0-.6-.1-.9-.3-2.1-1.7-4-3.6-5.7-5.6-.2-.3-.4-.7-.3-1 0-.4.2-.7.5-1 .6-.5 1.5-.4 2 .2 1.6 1.9 3.3 3.7 5.3 5.2.3.2.5.6.5 1s-.1.7-.3 1c-.2.3-.6.5-1.1.5zm-5.4-7.6c-.2 0-.4.1-.5.2-.2.1-.3.3-.3.5s0 .4.2.6c1.7 2 3.6 3.9 5.6 5.5.3.3.8.2 1.1-.1.3-.3.2-.8-.1-1.1-2-1.6-3.8-3.4-5.4-5.3-.2-.2-.4-.3-.6-.3zM104.7 32.2c-.4-.4-1.1-.4-1.6 0-.4.4-.4 1.1 0 1.6 1.8 1.7 3.4 3.7 4.9 5.7.2.3.6.5.9.5.2 0 .4-.1.6-.2.5-.3.6-1 .3-1.5-1.5-2.2-3.2-4.2-5.1-6.1z"/><path class="st0" d="M108.9 40.3c-.5 0-.9-.2-1.2-.6-1.4-2-3.1-3.9-4.8-5.7-.3-.3-.4-.6-.4-1s.1-.7.4-1c.3-.3.6-.4 1-.4s.7.1 1 .4c1.9 1.9 3.6 3.9 5.2 6.1.4.6.3 1.5-.3 2-.3.1-.6.2-.9.2zm-5-8.1c-.2 0-.4.1-.6.2-.1.2-.2.3-.2.6 0 .2.1.4.2.6 1.8 1.8 3.5 3.7 4.9 5.8.2.3.8.4 1.1.2.4-.2.4-.7.2-1.1-1.5-2.1-3.2-4.2-5.1-6-.1-.2-.3-.3-.5-.3zM107.2 86.5c-1.5 2-3.2 3.9-5.1 5.6-.4.4-.5 1.1-.1 1.6.2.2.5.4.8.4.3 0 .5-.1.7-.3 2-1.8 3.8-3.7 5.3-5.9.4-.5.3-1.2-.2-1.5-.3-.5-1-.4-1.4.1z"/><path class="st0" d="M102.9 94.3c-.4 0-.8-.2-1-.5-.5-.6-.5-1.5.1-2 1.8-1.7 3.5-3.5 5-5.5.2-.3.6-.5.9-.6.4-.1.7 0 1 .3.3.2.5.6.5.9.1.4 0 .7-.3 1.1-1.6 2.1-3.4 4.1-5.4 5.9-.1.3-.4.4-.8.4zm4.6-7.6c-1.5 2-3.2 3.9-5.1 5.6-.3.3-.3.8-.1 1.1.3.3.8.3 1.1.1 1.9-1.8 3.7-3.7 5.3-5.8.1-.2.2-.4.1-.6 0-.2-.1-.4-.3-.5-.2-.1-.4-.2-.6-.2-.1 0-.3.1-.4.3zM98 95.4c-2.1 1.4-4.3 2.7-6.6 3.7-.6.2-.8.9-.6 1.5.2.4.6.7 1 .7.1 0 .3 0 .4-.1 2.4-1.1 4.7-2.4 6.9-3.9.5-.3.6-1 .3-1.5-.2-.6-.9-.8-1.4-.4z"/><path class="st0" d="M91.9 101.5c-.6 0-1.1-.3-1.3-.8-.3-.7 0-1.6.7-1.9 2.3-1 4.4-2.2 6.5-3.6.6-.4 1.5-.3 2 .4.4.6.3 1.5-.4 2-2.2 1.5-4.5 2.8-7 3.9-.2-.1-.3 0-.5 0zm6.7-6c-.2 0-.3 0-.4.1-2.1 1.4-4.3 2.7-6.6 3.7-.4.2-.6.6-.4 1 .2.4.6.6 1 .4 2.4-1.1 4.7-2.3 6.9-3.8.4-.2.4-.7.2-1.1-.2-.2-.5-.3-.7-.3zM114.6 74.4c-.6-.2-1.2.1-1.4.7-.8 2.4-1.8 4.7-3 6.9-.3.5-.1 1.2.4 1.5.2.1.4.1.5.1.4 0 .8-.2 1-.6 1.3-2.3 2.4-4.7 3.2-7.2.2-.5-.1-1.2-.7-1.4z"/><path class="st0" d="M111.1 84c-.2 0-.5-.1-.7-.2-.3-.2-.6-.5-.7-.9-.1-.4-.1-.7.1-1.1 1.2-2.2 2.2-4.5 3-6.8.2-.7 1.1-1.1 1.8-.9.7.2 1.1 1.1.9 1.8-.8 2.5-1.9 5-3.2 7.3-.2.5-.7.8-1.2.8zm3.2-9.3c-.3 0-.6.2-.7.5-.8 2.4-1.8 4.7-3.1 6.9-.1.2-.1.4-.1.6.1.2.2.4.4.5.4.2.9.1 1.1-.3 1.3-2.3 2.4-4.7 3.2-7.2.1-.4-.1-.9-.5-1h-.3zM117 56c-.1-.6-.6-1-1.3-.9-.6.1-1 .7-.9 1.3.3 2 .5 4.1.5 6.2 0 2.5-.2 5-.7 7.5-.1.6.3 1.2.9 1.3h.2c.5 0 1-.4 1.1-.9.5-2.6.7-5.2.7-7.9 0-2.3-.2-4.5-.5-6.6z"/><path class="st0" d="M115.7 71.6h-.3c-.8-.1-1.3-.9-1.1-1.7.5-2.4.7-4.9.7-7.4 0-2.1-.2-4.1-.5-6.1-.1-.4 0-.7.3-1.1.2-.3.6-.5.9-.6.8-.1 1.5.4 1.6 1.2.3 2.2.5 4.4.5 6.6 0 2.7-.2 5.3-.7 7.9-.2.7-.8 1.2-1.4 1.2zm.2-16.3h-.1c-.4.1-.7.5-.7.9.3 2 .5 4.1.5 6.2 0 2.5-.2 5.1-.7 7.5-.1.4.2.8.6.9.4.1.8-.2.9-.6.5-2.6.7-5.2.7-7.8 0-2.2-.2-4.3-.5-6.5 0-.3-.3-.6-.7-.6zM67.3 23.4h.2c2.4-.5 4.9-.8 7.5-.9.6 0 1.1-.5 1-1.1 0-.6-.5-1.1-1.1-1-2.7.1-5.3.4-7.8.9-.6.1-1 .7-.9 1.3.1.5.5.8 1.1.8z"/><path class="st0" d="M67.3 23.7c-.7 0-1.3-.5-1.4-1.1-.1-.4 0-.7.2-1.1.2-.3.5-.5.9-.6 2.5-.5 5.2-.8 7.9-.9.8 0 1.4.6 1.4 1.3 0 .4-.1.7-.4 1-.3.3-.6.4-1 .5-2.6.1-5.1.4-7.5.9h-.1zm7.6-3.1c-2.7.1-5.3.4-7.8.9-.2 0-.4.2-.5.3-.1.2-.2.4-.1.6.1.4.5.7.9.6 2.4-.5 5-.8 7.6-.9.2 0 .4-.1.5-.3.1-.2.2-.4.2-.6 0-.2-.4-.6-.8-.6zM54.8 27.9c.2 0 .4 0 .5-.1 2.2-1.2 4.5-2.2 6.9-3 .6-.2.9-.8.7-1.4-.2-.6-.8-.9-1.4-.7-2.5.8-5 1.9-7.3 3.1-.5.3-.7 1-.4 1.5.3.3.7.6 1 .6z"/><path class="st0" d="M54.8 28.2c-.5 0-1-.3-1.2-.7-.2-.3-.2-.7-.1-1.1.1-.4.3-.7.7-.8 2.3-1.3 4.8-2.3 7.3-3.2.4-.1.7-.1 1.1.1.3.2.6.5.7.8.2.7-.2 1.5-.9 1.8-2.4.8-4.7 1.8-6.8 2.9-.3.1-.5.2-.8.2zm7.1-5.3h-.2c-2.5.8-5 1.9-7.2 3.1-.2.1-.3.3-.4.5-.1.2 0 .4.1.6.2.4.7.5 1.1.3 2.2-1.2 4.5-2.2 7-3 .4-.1.6-.6.5-1-.1-.2-.2-.4-.4-.5h-.5zM92.6 26.4c2.3 1.1 4.4 2.4 6.4 3.9.2.1.4.2.7.2.3 0 .7-.2.9-.4.4-.5.3-1.2-.2-1.5-2.1-1.6-4.4-3-6.8-4.1-.5-.3-1.2 0-1.5.5-.3.5 0 1.2.5 1.4z"/><path class="st0" d="M99.7 30.8c-.3 0-.6-.1-.8-.3-2-1.5-4.1-2.8-6.4-3.9-.7-.3-1-1.2-.7-1.9.3-.7 1.2-1 1.9-.7 2.4 1.2 4.7 2.5 6.8 4.1.3.2.5.6.6.9.1.4 0 .7-.3 1.1-.2.5-.7.7-1.1.7zm-6.6-6.1c-.3 0-.6.2-.7.4-.2.4 0 .9.4 1 2.3 1.1 4.5 2.4 6.5 3.9.3.3.8.2 1.1-.2.1-.2.2-.4.1-.6 0-.2-.1-.4-.3-.5-2.1-1.6-4.4-2.9-6.7-4.1-.2.1-.3.1-.4.1zM80.3 22.8c2.5.3 5 .9 7.3 1.6.1 0 .2.1.3.1.5 0 .9-.3 1-.8.2-.6-.1-1.2-.7-1.4-2.5-.8-5.1-1.4-7.7-1.7-.6-.1-1.2.4-1.2 1s.4 1.1 1 1.2z"/><path class="st0" d="M88 24.8c-.1 0-.3 0-.4-.1-2.4-.8-4.8-1.3-7.3-1.6-.4 0-.7-.2-.9-.5-.2-.3-.3-.7-.3-1 .1-.8.8-1.3 1.6-1.2 2.6.3 5.3.9 7.8 1.7.7.2 1.2 1 .9 1.8-.3.5-.8.9-1.4.9zm-7.6-3.9c-.4 0-.7.3-.8.7 0 .2 0 .4.2.6.1.2.3.3.5.3 2.5.3 5 .9 7.4 1.6.4.1.9-.1 1-.5.1-.4-.1-.9-.5-1-2.5-.8-5.1-1.3-7.8-1.7.1 0 .1 0 0 0zM113.6 51.1c.1.5.6.8 1.1.8h.3c.6-.2.9-.8.7-1.4-.8-2.5-1.8-5-3-7.3-.3-.5-.9-.7-1.5-.5-.5.3-.7.9-.5 1.5 1.3 2.1 2.2 4.5 2.9 6.9z"/><path class="st0" d="M114.7 52.2c-.6 0-1.2-.4-1.4-1-.7-2.4-1.6-4.7-2.8-6.9-.2-.3-.2-.7-.1-1.1.1-.4.4-.7.7-.8.7-.4 1.5-.1 1.9.6 1.2 2.4 2.2 4.9 3 7.4.1.4.1.7-.1 1.1-.2.3-.5.6-.8.7-.2-.1-.3 0-.4 0zm-.8-1.2c.1.4.6.7 1 .5.4-.1.7-.6.5-1-.7-2.5-1.7-5-2.9-7.3-.2-.4-.7-.5-1.1-.3-.2.1-.3.3-.4.5-.1.2 0 .4.1.6 1.1 2.2 2.1 4.6 2.8 7zM51.1 29.1c-.4-.5-1.1-.6-1.5-.2-.9.7-1.7 1.4-2.5 2.1-1.2-.8-2.7-1.3-4.3-1.3-4.2 0-7.7 3.5-7.7 7.7 0 2.4 1.1 4.5 2.7 5.9-.4.8-.8 1.7-1.2 2.6-.2.6 0 1.2.6 1.4.1.1.3.1.4.1.4 0 .8-.3 1-.7.3-.8.6-1.5 1-2.2.9.4 2 .6 3.1.6 4.2 0 7.7-3.5 7.7-7.7 0-1.9-.7-3.6-1.8-4.9.7-.6 1.5-1.2 2.2-1.8.5-.4.6-1.1.3-1.6zm-2.9 8.2c0 3-2.5 5.5-5.5 5.5-.7 0-1.4-.1-2.1-.4-.7-.3-1.3-.7-1.8-1.2-1-1-1.6-2.4-1.6-3.9 0-3 2.5-5.5 5.5-5.5 1 0 1.9.3 2.6.7.7.4 1.2.8 1.7 1.4.7 1 1.2 2.1 1.2 3.4z"/><path class="st0" d="M37.6 47.6c-.2 0-.4 0-.5-.1-.4-.1-.6-.4-.8-.8-.1-.3-.1-.7 0-1.1.3-.7.6-1.5 1.1-2.4-1.7-1.5-2.7-3.7-2.7-6 0-4.4 3.6-8 8-8 1.5 0 3 .4 4.3 1.2.8-.7 1.6-1.4 2.4-1.9.3-.2.7-.3 1-.3.4.1.7.2.9.6.5.6.3 1.5-.3 2s-1.3 1-2 1.6c1.1 1.4 1.6 3.1 1.6 4.8 0 4.4-3.6 8-8 8-1 0-2-.2-2.9-.6-.3.7-.6 1.3-.9 1.9-.1.8-.6 1.1-1.2 1.1zm5.1-17.7c-4.1 0-7.4 3.3-7.4 7.4 0 2.2 1 4.2 2.6 5.6l.2.2-.1.2c-.5 1-.8 1.8-1.2 2.5-.1.2-.1.4 0 .6.1.2.2.3.4.4.4.2.9 0 1-.4.3-.7.6-1.4 1-2.2l.1-.3.3.1c.9.4 1.9.6 2.9.6 4.1 0 7.4-3.3 7.4-7.4 0-1.7-.6-3.4-1.7-4.7l-.2-.2.2-.2c.8-.7 1.5-1.3 2.2-1.8.3-.3.4-.8.2-1.1-.1-.2-.3-.3-.5-.3s-.4 0-.6.1c-.8.6-1.6 1.3-2.5 2.1v.2l-.2-.1c-1.2-.8-2.6-1.3-4.1-1.3zm0 13.2c-.7 0-1.5-.1-2.2-.4-.7-.3-1.4-.7-1.9-1.3-1.1-1.1-1.7-2.6-1.7-4.1 0-3.2 2.6-5.8 5.8-5.8 1 0 1.9.3 2.8.7.7.4 1.3.9 1.8 1.5.8 1 1.2 2.3 1.2 3.6 0 3.2-2.6 5.8-5.8 5.8zm0-11c-2.9 0-5.2 2.3-5.2 5.2 0 1.4.5 2.7 1.5 3.7.5.5 1.1.9 1.7 1.1.6.3 1.3.4 1.9.4 2.9 0 5.2-2.3 5.2-5.2 0-1.1-.4-2.2-1.1-3.2-.4-.6-1-1-1.6-1.3-.7-.4-1.6-.7-2.4-.7zM55.9 59.3c.4-2.4 1.2-4.7 2.3-6.8.3-.5.1-1.2-.4-1.5-.5-.3-1.2-.1-1.5.4-1.3 2.3-2.2 4.8-2.6 7.5-.1.6.3 1.1.9 1.2.7.3 1.2-.2 1.3-.8z"/><path class="st0" d="M54.8 60.6h-.2c-.4-.1-.7-.3-.9-.6-.2-.3-.3-.7-.3-1 .4-2.7 1.3-5.3 2.6-7.6.4-.7 1.2-.9 1.9-.6.7.4.9 1.2.6 1.9-1.1 2.1-1.9 4.3-2.3 6.7-.1.7-.7 1.2-1.4 1.2zm2.5-9.4c-.3 0-.5.1-.7.4-1.3 2.3-2.1 4.8-2.5 7.4 0 .2 0 .4.1.6.1.2.3.3.5.3.4.1.8-.2.9-.7.4-2.4 1.2-4.8 2.4-6.9.2-.4.1-.9-.3-1.1-.1.1-.3 0-.4 0zM95.8 61.3h.3c.6-.1 1-.6 1-1.2-.3-2.7-1.1-5.2-2.3-7.7-.3-.5-.9-.8-1.5-.5-.5.3-.8.9-.5 1.5 1.1 2.2 1.8 4.5 2.1 6.9.1.6.4 1 .9 1z"/><path class="st0" d="M96 61.7h-.2c-.6-.1-1.1-.6-1.2-1.2-.3-2.4-.9-4.6-2-6.8-.4-.7-.1-1.6.6-1.9.3-.2.7-.2 1.1-.1.4.1.7.4.8.7 1.2 2.4 2 5.1 2.3 7.8.1.8-.5 1.5-1.3 1.6 0-.1-.1-.1-.1-.1zm-2.2-9.5c-.1 0-.2 0-.4.1-.4.2-.5.7-.3 1.1 1.1 2.2 1.8 4.5 2.1 7 0 .4.3.6.7.7h.2c.2 0 .4-.1.5-.3.1-.2.2-.4.2-.6-.3-2.6-1-5.2-2.2-7.5-.1-.2-.3-.3-.5-.4-.1-.1-.2-.1-.3-.1zM92.8 73.9c.1.1.2.1.4.1.4.1.9-.1 1.1-.5 1.3-2.3 2.2-4.9 2.7-7.5v-.1c.1-.6-.3-1.1-.9-1.2-.6-.1-1.2.4-1.3 1-.4 2.4-1.2 4.7-2.4 6.8-.4.4-.2 1.1.4 1.4z"/><path class="st0" d="M93.3 74.3h-.2c-.2 0-.3-.1-.5-.2-.7-.4-.9-1.3-.5-1.9 1.2-2.1 2-4.3 2.4-6.7.1-.4.3-.7.6-.9.3-.2.7-.3 1.1-.3.8.1 1.3.8 1.2 1.6v.1c-.4 2.7-1.4 5.3-2.7 7.6-.4.5-.9.7-1.4.7zm-.4-.7c.1 0 .2.1.3.1.3.1.6-.1.8-.4 1.3-2.3 2.2-4.8 2.6-7.4v-.1c.1-.4-.2-.8-.7-.9-.4-.1-.8.2-.9.7-.4 2.4-1.2 4.8-2.4 6.9-.2.4-.1.9.3 1.1zM84.2 44.9c2.2 1.1 4.1 2.6 5.7 4.4.2.2.4.3.6.3.3.1.7 0 .9-.3.5-.4.5-1.1.1-1.6-1.8-2-3.9-3.6-6.3-4.9-.5-.3-1.2-.1-1.5.5-.2.6 0 1.3.5 1.6z"/><path class="st0" d="M90.8 49.9h-.2c-.3-.1-.6-.2-.8-.5-1.6-1.8-3.5-3.2-5.6-4.3-.7-.4-1-1.2-.6-1.9.2-.3.5-.6.8-.7.4-.1.7-.1 1.1.1 2.4 1.2 4.6 2.9 6.4 4.9.3.3.4.6.4 1s-.2.7-.5 1c-.4.3-.7.4-1 .4zm-6.4-5.3c2.2 1.1 4.1 2.6 5.8 4.4.1.1.3.2.5.2s.5 0 .7-.2c.2-.1.2-.3.3-.5 0-.2-.1-.4-.2-.6-1.8-2-3.9-3.6-6.2-4.8-.2-.1-.4-.1-.6 0-.2.1-.4.2-.5.4-.4.4-.2.9.2 1.1zM83.6 82.6c.2 0 .4 0 .6-.1 2.5-1.1 4.7-2.6 6.6-4.5.4-.4.4-1.1 0-1.6-.4-.4-1.1-.4-1.6 0-1.7 1.7-3.7 3.1-5.9 4.1-.6.2-.8.9-.6 1.5.2.3.5.5.9.6z"/><path class="st0" d="M83.7 82.9h-.2c-.5-.1-.9-.4-1.1-.8-.3-.7 0-1.6.7-1.9 2.2-1 4.1-2.3 5.8-4 .3-.3.6-.4 1-.4s.7.1 1 .4c.3.3.4.6.4 1s-.1.7-.4 1c-1.9 1.9-4.2 3.5-6.7 4.6-.1.1-.3.1-.5.1zm6.3-6.5c-.2 0-.4.1-.6.2-1.7 1.7-3.8 3.1-6 4.1-.4.2-.6.6-.4 1 .1.2.3.4.6.5.1 0 .3 0 .4-.1 2.4-1.1 4.6-2.6 6.5-4.4.1-.1.2-.3.2-.6 0-.2-.1-.4-.2-.6-.1 0-.3-.1-.5-.1zM79.6 82.9c-.1-.6-.7-1-1.3-.9-2 .3-4.1.3-6.1 0-.3-.1-.7-.1-1-.2-.6-.1-1.2.2-1.3.8-.1.6.2 1.2.8 1.3.4.1.7.2 1.1.2 2.3.4 4.6.4 6.9 0 .6-.1 1-.6.9-1.2z"/><path class="st0" d="M75.3 84.7c-1.2 0-2.4-.1-3.6-.3l-1.2-.3c-.4-.1-.7-.3-.9-.6-.2-.3-.3-.7-.2-1.1.1-.4.3-.7.6-.9.3-.2.7-.3 1.1-.2.3.1.7.2 1 .2 2 .3 4 .3 6 0 .4-.1.7 0 1.1.3.3.2.5.6.6.9.1.4 0 .7-.3 1.1-.2.3-.6.5-.9.6-1 .2-2.1.3-3.3.3zM70.9 82c-.1 0-.3 0-.4.1-.2.1-.3.3-.4.5 0 .2 0 .4.1.6.1.2.3.3.5.4.4.1.7.2 1.1.2 2.2.4 4.5.4 6.8 0 .2 0 .4-.1.5-.3.1-.2.2-.4.1-.6 0-.2-.1-.4-.3-.5-.2-.1-.4-.2-.6-.1-2.1.3-4.2.3-6.2 0-.4-.1-.7-.1-1-.2 0-.1-.1-.1-.2-.1zM66.4 42.4c-2.5 1.1-4.7 2.6-6.6 4.5-.4.4-.4 1.1 0 1.6.2.2.4.3.6.3.3.1.7-.1 1-.3 1.7-1.7 3.7-3.1 5.9-4 .6-.2.8-.9.6-1.4-.3-.7-1-1-1.5-.7z"/><path class="st0" d="M60.5 49.1h-.2c-.3 0-.6-.2-.8-.4-.6-.5-.6-1.4 0-2 1.9-2 4.2-3.5 6.7-4.6.3-.1.7-.2 1.1 0 .4.1.6.4.8.8.1.3.2.7 0 1.1-.1.4-.4.6-.8.8-2.2.9-4.1 2.3-5.8 4-.2.1-.6.3-1 .3zm6-6.4c-2.5 1-4.6 2.5-6.5 4.5-.3.3-.3.8 0 1.1.1.1.3.2.4.2.3 0 .5 0 .7-.2 1.7-1.8 3.7-3.1 6-4.1.2-.1.3-.2.4-.4.1-.2.1-.4 0-.6-.1-.2-.2-.3-.4-.4-.2-.2-.4-.2-.6-.1zM71.8 43h.3c2-.3 4.1-.3 6.3 0 .3.1.6.1 1 .2.6.1 1.2-.3 1.3-.8.1-.6-.3-1.2-.8-1.3-.3-.1-.7-.1-1.1-.2-2.4-.3-4.7-.3-6.9 0-.6.1-1 .6-.9 1.2 0 .5.4.9.8.9z"/><path class="st0" d="M79.6 43.5h-.3c-.3-.1-.6-.1-.9-.2-2.1-.3-4.2-.2-6.2 0h-.4c-.6-.1-1.1-.6-1.2-1.2-.1-.4 0-.7.3-1 .2-.3.6-.5.9-.6 2.2-.3 4.5-.3 7 0l.3.1c.3 0 .5.1.8.2.8.2 1.3.9 1.1 1.7-.1.6-.7 1-1.4 1zm-4.2-1c1 0 2 .1 3.1.2.3.1.7.1 1 .2.4.1.8-.2.9-.6.1-.4-.2-.8-.6-.9-.3-.1-.5-.1-.8-.1l-.3-.1c-2.3-.3-4.6-.3-6.8 0-.2 0-.4.1-.5.3-.1.2-.2.4-.1.6 0 .3.3.6.7.7h.2c1-.2 2.1-.3 3.2-.3zM66.3 80c-1.6-.8-3-1.8-4.3-2.9.5-.6.8-1.4 1-2.2.4-2.7-1.4-5.2-4.1-5.7-.7-.1-1.4-.1-2.1.1-.5-1.5-.9-3.1-1-4.8-.1-.6-.6-1.1-1.2-1-.6.1-1.1.6-1 1.2.2 2 .6 3.9 1.3 5.7-.8.7-1.4 1.7-1.6 2.9-.4 2.7 1.4 5.2 4.1 5.7 1.1.2 2.1 0 3-.5 1.5 1.3 3.2 2.5 5.1 3.4.1 0 .2.1.3.1.5.1.9-.2 1.2-.6.1-.5-.1-1.2-.7-1.4zm-8.6-3.2c-1.5-.2-2.5-1.7-2.3-3.2.1-.4.2-.8.4-1.1.4-.6 1.1-1 1.8-1.2.3 0 .6-.1.9 0 1.5.2 2.5 1.7 2.3 3.2-.1.4-.2.7-.4 1-.4.6-1 1-1.7 1.2-.3.2-.7.2-1 .1z"/><path class="st0" d="M65.8 82.4h-.2c-.1 0-.3-.1-.4-.1-1.8-.9-3.5-2-5-3.3-.9.4-2 .6-3 .4-2.9-.5-4.8-3.2-4.4-6 .2-1.1.7-2.1 1.6-2.9-.6-1.8-1.1-3.6-1.2-5.5-.1-.8.5-1.5 1.3-1.5.8-.1 1.5.5 1.5 1.3.1 1.5.4 3 .9 4.4.6-.1 1.3-.2 1.9-.1 2.9.5 4.8 3.2 4.4 6-.1.7-.4 1.5-.9 2.1 1.2 1 2.6 1.9 4 2.6.3.2.6.5.7.8.1.4.1.7-.1 1.1 0 .4-.5.7-1.1.7zm-5.5-4.3.2.1c1.5 1.3 3.1 2.5 5 3.4.1 0 .1.1.2.1.3.1.7-.1.8-.4.1-.2.1-.4 0-.6-.1-.2-.2-.4-.4-.5-1.6-.8-3.1-1.8-4.4-2.9l-.2-.2.2-.2c.5-.6.8-1.3.9-2.1.4-2.5-1.3-4.9-3.8-5.3-.6-.1-1.3-.1-1.9.1l-.3.1-.1-.3c-.6-1.6-.9-3.2-1.1-4.9 0-.4-.4-.8-.9-.7-.4 0-.8.4-.7.9.2 1.9.6 3.8 1.3 5.6l.1.2-.2.1c-.8.7-1.4 1.7-1.5 2.7-.4 2.5 1.3 4.9 3.8 5.3.9.2 1.9 0 2.8-.4l.2-.1zm-2.2-.9h-.5c-.8-.1-1.5-.6-2-1.2-.5-.7-.7-1.5-.5-2.3.1-.4.2-.8.5-1.2.5-.7 1.2-1.2 2-1.3.4-.1.7-.1 1 0 .8.1 1.5.6 2 1.2.5.7.7 1.5.5 2.3-.1.4-.2.8-.4 1.2-.4.7-1.1 1.2-1.9 1.3-.3-.1-.5 0-.7 0zm0-5.5h-.4c-.7.1-1.3.5-1.6 1-.2.3-.3.6-.4 1-.1.6 0 1.3.4 1.8s.9.9 1.6 1h.9c.6-.1 1.2-.5 1.5-1.1.2-.3.3-.6.4-.9.1-.6 0-1.3-.4-1.8s-.9-.9-1.6-1h-.4zM99.5 41.7c-.4-.5-1.1-.5-1.6-.1s-.5 1.1-.1 1.6c1.6 1.8 2.9 3.9 4 6 .2.3.5.6.8.6.2 0 .4 0 .6-.1.5-.3.8-.9.5-1.5-1-2.3-2.5-4.5-4.2-6.5z"/><path class="st0" d="M102.8 50.1h-.2c-.5-.1-.9-.3-1.1-.8-1.1-2.1-2.4-4.1-4-6-.2-.3-.4-.7-.3-1 0-.4.2-.7.5-1 .6-.5 1.5-.4 2 .2 1.7 2 3.2 4.2 4.3 6.5.2.3.2.7.1 1.1-.1.4-.4.6-.7.8-.1.1-.3.2-.6.2zm-4.1-8.5c-.2 0-.4.1-.5.2-.3.3-.4.8-.1 1.1 1.6 1.9 3 3.9 4 6.1.1.2.3.4.6.4.2 0 .3 0 .5-.1s.3-.3.4-.5c.1-.2.1-.4 0-.6-1.2-2.3-2.6-4.5-4.3-6.4-.2-.1-.4-.2-.6-.2zM103.5 74.8c.1 0 .2.1.3.1.5.1 1-.2 1.2-.7 1-2.4 1.6-4.9 2-7.5v-.1c.1-.6-.3-1.2-.9-1.2-.6-.1-1.2.3-1.2.9v.1c-.3 2.4-.9 4.8-1.8 7-.4.6-.1 1.2.4 1.4z"/><path class="st0" d="M103.9 75.2h-.2c-.1 0-.2 0-.3-.1-.7-.3-1.1-1.1-.8-1.8.9-2.2 1.5-4.5 1.8-6.9v-.1c.1-.4.2-.7.5-.9.3-.2.7-.3 1-.3.4 0 .7.2.9.5.2.3.3.7.3 1v.1c-.4 2.6-1 5.2-2 7.6-.1.6-.6.9-1.2.9zm1.9-9.6c-.2 0-.3.1-.5.2s-.3.3-.3.5v.1c-.3 2.4-.9 4.8-1.8 7.1-.2.4 0 .9.4 1h.2c.4 0 .7-.2.8-.5.9-2.4 1.6-4.9 1.9-7.5v-.1c0-.2 0-.4-.2-.6-.1-.2-.3-.3-.5-.3.1.1.1.1 0 .1zM94.2 39.5c.2.1.4.2.6.2.4 0 .7-.1 1-.4.4-.5.3-1.2-.1-1.5-2-1.7-4.2-3.1-6.6-4.2-.6-.3-1.2 0-1.5.5-.3.5 0 1.2.5 1.5 2.1 1.1 4.2 2.4 6.1 3.9z"/><path class="st0" d="M94.9 40.1h-.2c-.3 0-.5-.1-.7-.3-1.8-1.5-3.9-2.8-6-3.8-.7-.3-1-1.2-.7-1.9.3-.7 1.2-1 1.9-.7 2.4 1.1 4.6 2.5 6.6 4.2.6.5.7 1.4.2 2-.3.3-.7.5-1.1.5zm-.5-.8c.1.1.2.2.4.2.3 0 .5-.1.7-.3.3-.3.2-.8-.1-1.1-2-1.6-4.2-3-6.5-4.1-.4-.2-.9 0-1 .4-.2.4 0 .9.4 1 2.1 1 4.2 2.3 6.1 3.9zM105 61.1c0 .5.4 1 1 1h.2c.6 0 1.1-.5 1.1-1.1-.1-2.6-.5-5.2-1.3-7.7-.2-.6-.8-.9-1.4-.7-.6.2-.9.8-.7 1.4.6 2.3 1 4.7 1.1 7.1z"/><path class="st0" d="M106.1 62.5h-.2c-.7-.1-1.2-.7-1.2-1.3-.1-2.4-.5-4.8-1.2-7.1-.2-.7.2-1.5 1-1.8.4-.1.7-.1 1.1.1.3.2.6.5.7.8.8 2.5 1.2 5.1 1.3 7.7 0 .4-.1.7-.4 1-.3.4-.7.6-1.1.6zm-.8-1.4c0 .4.3.7.7.7h.1c.2 0 .4-.1.5-.3.1-.2.2-.4.2-.6-.1-2.6-.5-5.1-1.3-7.6-.1-.2-.2-.4-.4-.5-.2-.1-.4-.1-.6-.1-.4.1-.7.6-.5 1 .8 2.5 1.2 5 1.3 7.4zM83.4 33.8c.5.1 1.1-.3 1.2-.8.2-.6-.2-1.2-.8-1.4-1.4-.4-2.8-.7-4.3-.9-1.1-.1-2.3-.2-3.4-.2-.6 0-1.1.5-1.1 1.1 0 .6.5 1.1 1.1 1.1 1.1 0 2.1.1 3.2.2 1.3.2 2.7.5 4 .8 0 .1 0 .1.1.1z"/><path class="st0" d="M83.5 34.2h-.4c-1.3-.4-2.6-.6-3.9-.8-1-.1-2.1-.2-3.1-.2-.8 0-1.4-.7-1.4-1.4 0-.8.6-1.4 1.4-1.4 1.1 0 2.3.1 3.4.2 1.5.2 3 .5 4.4.9.8.2 1.2 1 1 1.7-.2.6-.8 1-1.4 1zM76.1 31c-.4 0-.8.3-.8.8 0 .4.3.8.8.8 1.1 0 2.1.1 3.2.2 1.4.2 2.7.5 4 .8h.1c.4 0 .8-.2.9-.6.1-.4-.1-.8-.5-1-1.4-.4-2.8-.7-4.2-.9-1.3-.1-2.4-.1-3.5-.1zM45.2 56.3c-.6-.1-1.2.3-1.3.9-.1.3-.1.7-.2 1-.3 2.2-.4 4.5-.2 6.7 0 .5.4.9 1 1h.2c.6 0 1.1-.6 1-1.2-.1-2.1-.1-4.2.2-6.3 0-.3.1-.6.1-1 .2-.4-.2-1-.8-1.1z"/><path class="st0" d="M44.7 66.3h-.2c-.7-.1-1.2-.6-1.2-1.3-.1-2.3-.1-4.5.2-6.8 0-.3.1-.7.2-1 .1-.4.3-.7.6-.9.3-.2.7-.3 1-.2.8.1 1.3.9 1.2 1.6-.1.3-.1.6-.1 1-.3 2.1-.4 4.2-.2 6.2 0 .7-.6 1.3-1.5 1.4.1 0 0 0 0 0zm.4-9.7c-.1 0-.3 0-.4.1-.2.1-.3.3-.3.5-.1.3-.1.7-.2 1-.3 2.2-.4 4.4-.2 6.7 0 .4.3.7.7.7h.2c.4 0 .8-.4.7-.8-.1-2.1-.1-4.2.2-6.3 0-.3.1-.7.1-1 .1-.4-.2-.8-.6-.9h-.2zM71.8 31.9c-.1-.6-.6-1-1.2-.9-2.6.4-5.2 1-7.5 1.9-.6.2-.8.9-.6 1.4.2.4.5.6.9.7.2 0 .4 0 .5-.1 2.2-.9 4.6-1.5 7-1.8.6 0 1-.6.9-1.2z"/><path class="st0" d="M63.4 35.4h-.2c-.5-.1-.9-.4-1.1-.9-.1-.4-.1-.7 0-1.1.2-.3.4-.6.8-.8 2.4-.9 4.9-1.6 7.6-2 .4-.1.7 0 1 .3.3.2.5.6.6.9.1.4 0 .7-.3 1-.2.3-.6.5-.9.5-2.4.3-4.8.9-6.9 1.8-.2.2-.4.3-.6.3zm7.3-4.1h-.1c-2.6.4-5.1 1-7.4 1.9-.2.1-.3.2-.4.4-.1.2-.1.4 0 .6.1.3.3.5.6.5h.4c2.2-.9 4.6-1.5 7.1-1.8.2 0 .4-.1.5-.3.1-.2.2-.4.2-.6 0-.2-.1-.4-.3-.5-.3-.2-.4-.2-.6-.2zM67.9 93.4c.5.1 1.1-.3 1.2-.8.2-.6-.2-1.2-.8-1.3-2.4-.6-4.7-1.5-6.8-2.5-.5-.3-1.2-.1-1.5.5-.3.5-.1 1.2.5 1.5 2.2 1.1 4.7 2 7.3 2.7 0-.1.1-.1.1-.1z"/><path class="st0" d="M68.1 93.7h-.4c-2.6-.7-5.1-1.6-7.3-2.7-.7-.3-1-1.2-.6-1.9.2-.3.5-.6.8-.7.4-.1.7-.1 1.1.1 2.1 1 4.4 1.9 6.8 2.5.8.2 1.2 1 1 1.7-.2.6-.8 1-1.4 1zM61 88.9h-.2c-.2.1-.4.2-.5.4-.2.4 0 .9.4 1.1 2.2 1.1 4.6 2 7.2 2.7h.1c.4 0 .8-.2.9-.6.1-.4-.1-.8-.6-1-2.4-.6-4.8-1.5-6.9-2.5-.1 0-.2-.1-.4-.1zM50.2 82.4c1.6 2 3.5 3.8 5.6 5.4.2.1.3.2.5.2.4.1.8-.1 1-.4.4-.5.3-1.2-.2-1.5-2-1.4-3.7-3.1-5.2-5-.4-.5-1.1-.6-1.5-.2-.5.3-.6 1-.2 1.5z"/><path class="st0" d="M56.5 88.3h-.2c-.2 0-.5-.1-.7-.3-2.1-1.6-4-3.4-5.7-5.5-.5-.6-.4-1.5.2-2 .6-.5 1.5-.4 2 .2 1.5 1.9 3.2 3.5 5.1 5 .6.5.8 1.4.3 2-.2.4-.6.6-1 .6zm-6.1-6.1c1.6 2 3.5 3.8 5.5 5.3.1.1.2.1.4.1.3 0 .6-.1.7-.3.3-.3.2-.8-.2-1.1-2-1.5-3.7-3.2-5.3-5.1-.3-.3-.8-.4-1.1-.1-.2.4-.2.9 0 1.2zM46.6 69.9c-.1-.6-.7-1-1.3-.8-.6.1-1 .7-.8 1.3.6 2.6 1.5 5 2.7 7.3.2.3.5.5.8.6.2 0 .4 0 .7-.1.5-.3.7-.9.5-1.5-1.2-2.1-2.1-4.4-2.6-6.8z"/><path class="st0" d="M48.1 78.6h-.2c-.5-.1-.9-.3-1.1-.7-1.2-2.3-2.1-4.8-2.8-7.4-.1-.4 0-.7.2-1.1.2-.3.5-.5.9-.6.8-.2 1.5.3 1.7 1 .6 2.4 1.4 4.6 2.5 6.7.2.3.2.7.1 1.1-.1.4-.4.7-.7.8-.1.2-.3.2-.6.2zm-2.6-9.2h-.2c-.2 0-.4.2-.5.4-.1.2-.1.4-.1.6.6 2.5 1.5 5 2.7 7.2.1.2.3.4.6.4.2 0 .3 0 .5-.1s.3-.3.4-.5 0-.4-.1-.6c-1.1-2.1-2-4.4-2.6-6.8 0-.3-.4-.6-.7-.6zM50.2 44.5c-.5-.3-1.2-.2-1.5.3-1.4 2.2-2.5 4.5-3.4 7-.2.6.1 1.2.7 1.4h.2c.5.1 1-.2 1.2-.7.8-2.3 1.8-4.5 3.1-6.5.4-.5.2-1.2-.3-1.5z"/><path class="st0" d="M46.4 53.6h-.2c-.1 0-.2 0-.3-.1-.4-.1-.6-.4-.8-.7-.2-.3-.2-.7-.1-1.1.9-2.5 2-4.9 3.4-7.1.2-.3.5-.5.9-.6.4-.1.7 0 1.1.2.3.2.5.5.6.9.1.4 0 .7-.2 1.1-1.3 2-2.3 4.2-3.1 6.5-.2.5-.7.9-1.3.9zm3.2-9h-.2c-.2 0-.4.2-.5.3-1.4 2.1-2.5 4.5-3.3 6.9-.1.2-.1.4 0 .6.1.2.3.3.5.4h.1c.4 0 .7-.2.8-.5.8-2.3 1.9-4.6 3.2-6.6.1-.2.1-.4.1-.6 0-.2-.2-.4-.3-.5-.1.1-.2 0-.4 0zM81.9 92.6c-.1-.6-.7-1-1.3-.9-2.4.4-4.8.6-7.2.4-.6 0-1.1.4-1.2 1 0 .6.4 1.1.9 1.2h.1c2.6.2 5.2 0 7.8-.5.7-.1 1.1-.6.9-1.2z"/><path class="st0" d="M75.3 94.7c-.7 0-1.4 0-2-.1h-.1c-.7-.1-1.3-.8-1.2-1.5 0-.4.2-.7.5-1 .3-.3.6-.4 1-.4 2.4.2 4.8 0 7.1-.4.4-.1.7 0 1.1.2.3.2.5.5.6.9.1.4 0 .7-.2 1.1-.2.3-.5.5-.9.6-2 .4-3.9.6-5.9.6zm-1.9-2.3c-.2 0-.4.1-.5.2-.2.1-.3.3-.3.5 0 .4.3.8.7.8 2.6.2 5.2 0 7.7-.4.2 0 .4-.2.5-.3.1-.2.2-.4.1-.6 0-.2-.2-.4-.3-.5-.2-.1-.4-.1-.6-.1-2.4.4-4.8.6-7.3.4zM52.1 42c.2.2.4.3.6.3.3 0 .7-.1 1-.3 1.6-1.8 3.5-3.3 5.5-4.6.5-.3.7-1 .3-1.5-.3-.5-1-.7-1.5-.3-2.2 1.4-4.2 3.1-6 5-.3.3-.3.9.1 1.4z"/><path class="st0" d="M52.9 42.6h-.2c-.3 0-.6-.2-.8-.4-.3-.3-.4-.6-.5-1 0-.4.1-.7.4-1 1.8-1.9 3.8-3.6 6.1-5 .7-.4 1.5-.2 2 .4.2.3.3.7.2 1.1-.1.4-.3.7-.6.9-2 1.3-3.9 2.8-5.5 4.6-.3.2-.7.4-1.1.4zm-.5-.9c.1.1.3.2.4.2.3 0 .5-.1.7-.2 1.7-1.8 3.6-3.4 5.6-4.7.2-.1.3-.3.3-.5s0-.4-.1-.6c-.2-.4-.7-.5-1.1-.2-2.2 1.4-4.2 3-5.9 4.9-.1.2-.2.4-.2.6 0 .2.1.4.3.5zM102.1 77.7c-.5-.3-1.2-.2-1.5.4-.6 1-1.3 2-2.1 2.9-.7-.5-1.5-.8-2.4-.9-3.3-.4-6.4 1.9-6.8 5.2-.1 1.1 0 2.2.4 3.1-1.3.7-2.7 1.4-4.1 1.9-.6.2-.9.8-.6 1.4.1.4.5.7.9.7.2 0 .4 0 .5-.1 1.6-.6 3.1-1.3 4.5-2.1.9 1 2.1 1.6 3.6 1.8 3.3.4 6.4-1.9 6.8-5.2.2-1.6-.2-3.2-1.1-4.4.8-1 1.6-2.1 2.3-3.3.3-.4.1-1.1-.4-1.4zm-3 8.9c-.3 2.1-2.2 3.6-4.3 3.3-.7-.1-1.4-.4-1.9-.8-.6-.5-1-1.1-1.2-1.8-.2-.5-.2-1.1-.2-1.7.3-2.1 2.2-3.6 4.3-3.3.5.1.9.2 1.2.4.7.3 1.2.9 1.6 1.5.4.7.6 1.5.5 2.4z"/><path class="st0" d="M86 92.8h-.2c-.5-.1-1-.4-1.1-.9-.1-.4-.1-.7 0-1.1.2-.3.4-.6.8-.7 1.2-.5 2.5-1.1 3.8-1.7-.4-1-.5-2-.3-3 .2-1.7 1.1-3.2 2.4-4.2 1.4-1 3-1.5 4.7-1.3.8.1 1.6.4 2.3.8.7-.9 1.3-1.8 1.9-2.7.4-.7 1.3-.9 1.9-.5.3.2.5.5.6.9.1.4 0 .7-.2 1.1-.7 1.1-1.4 2.1-2.2 3.1.9 1.3 1.3 2.9 1.1 4.4-.5 3.5-3.7 5.9-7.2 5.5-1.4-.2-2.6-.8-3.6-1.7-1.4.8-2.9 1.5-4.4 2 .1-.1-.1 0-.3 0zm9.3-12.5c-1.2 0-2.5.4-3.5 1.2-1.2.9-2 2.3-2.2 3.8-.1 1 0 2 .4 3l.1.3-.2.1c-1.4.8-2.8 1.4-4.1 1.9-.2.1-.4.2-.4.4-.1.2-.1.4 0 .6.1.3.3.5.6.5h.4c1.5-.6 3-1.3 4.5-2.1l.2-.1.2.2c.9 1 2.1 1.5 3.4 1.7 3.1.4 6-1.8 6.4-4.9.2-1.5-.2-3-1.1-4.2l-.1-.2.2-.2c.8-1 1.6-2.1 2.3-3.2.1-.2.1-.4.1-.6 0-.2-.2-.4-.4-.5-.4-.2-.9-.1-1.1.3-.6 1-1.3 2-2.1 3l-.2.2-.2-.2c-.7-.5-1.5-.7-2.3-.8-.4-.1-.7-.2-.9-.2zm0 9.9h-.6c-.7-.1-1.4-.4-2.1-.9-.6-.5-1.1-1.2-1.3-2-.2-.6-.3-1.2-.2-1.8.3-2.3 2.4-3.9 4.7-3.6.5.1.9.2 1.3.4.7.4 1.3.9 1.7 1.7.5.8.6 1.7.5 2.6-.2 2.1-1.9 3.6-4 3.6zm0-7.7c-1.7 0-3.3 1.3-3.5 3.1-.1.5 0 1 .2 1.5.2.7.6 1.2 1.1 1.7.5.4 1.1.7 1.7.8 1.9.3 3.7-1.1 4-3 .1-.8 0-1.5-.4-2.2-.3-.6-.8-1.1-1.5-1.4-.4-.2-.8-.3-1.1-.4-.2 0-.3-.1-.5-.1zM69.8 72c-.1 0-.2-.1-.3-.1-.3-.2-.5-.6-.5-1l.8-4.8-4.8-1.2c-.4-.1-.7-.4-.7-.8-.1-.4.1-.8.5-1l4.3-2.4-2.1-4.4c-.2-.4-.1-.8.2-1.1.3-.3.7-.4 1.1-.2l4.5 1.8 2.2-4.4c.2-.4.5-.6.9-.5.4 0 .7.3.8.7l1.4 4.7 4.8-1c.4-.1.8.1 1 .4.2.3.2.8 0 1.1l-2.8 4 3.8 3.1c.3.2.4.7.3 1-.1.4-.5.6-.9.7l-4.9.3-.1 4.9c0 .4-.3.7-.6.9-.4.1-.8 0-1.1-.3l-3.3-3.6-3.9 3c0 .2-.3.3-.6.2zm-1.9-8.4 3.3.8c.5.1.8.6.7 1.1l-.5 3.3 2.6-2.1c.4-.3 1-.3 1.3.1l2.3 2.5V66c0-.5.4-.9.9-.9l3.3-.2-2.6-2.1c-.4-.3-.5-.9-.2-1.3l1.9-2.7-3.3.7c-.5.1-1-.2-1.1-.7l-1-3.2-1.5 3c-.2.4-.8.7-1.2.5l-3.1-1.3 1.4 3c.2.5 0 1-.4 1.2l-2.8 1.6z"/><path class="st0" d="M78.5 73c-.3 0-.7-.1-.9-.4l-3.1-3.4-3.7 2.8c-.3.2-.7.3-1 .2-.1 0-.2-.1-.3-.1-.4-.3-.7-.8-.6-1.3l.7-4.6-4.6-1c-.5-.1-.9-.5-.9-1-.1-.5.2-1 .6-1.2l4-2.3-2-4.2c-.2-.5-.1-1 .2-1.4.3-.4.9-.5 1.4-.3l4.3 1.7 2.1-4.2c.2-.5.7-.7 1.2-.7s.9.4 1.1.9l1.3 4.4 4.5-1c.5-.1 1 .1 1.3.5.3.4.3 1 0 1.4l-2.6 3.8 3.6 2.9c.4.3.6.8.4 1.3-.2.5-.6.8-1.1.9l-4.6.3-.1 4.6c0 .5-.3 1-.8 1.1-.1.3-.3.3-.4.3zm-4-4.6 3.5 3.8c.2.2.5.3.7.2.3-.1.4-.3.4-.6l.1-5.1 5.1-.3c.3 0 .5-.2.6-.5.1-.3 0-.6-.2-.7l-4-3.3 2.9-4.2c.2-.2.2-.5 0-.8-.2-.2-.4-.3-.7-.3l-5 1.1-1.5-4.9c-.1-.3-.3-.5-.6-.5s-.5.1-.7.4l-2.3 4.6-4.8-1.9c-.3-.1-.6 0-.8.2-.2.2-.2.5-.1.8l2.2 4.7-4.3 2.3c-.2.1-.4.4-.3.7 0 .3.2.5.5.6l5 1.2-.8 5.1c0 .3.1.6.3.7.1 0 .1.1.2.1.2 0 .4 0 .6-.1l4-3.3zm3.3 1.6-2.7-3c-.2-.3-.6-.3-.9-.1L71 69.5l.6-4c.1-.4-.2-.7-.5-.8l-3.9-1 3.5-2c.3-.2.4-.6.3-.9l-1.7-3.7 3.8 1.5c.3.1.7 0 .9-.3l1.8-3.6 1.2 3.9c.1.3.4.5.8.5l4-.8-2.3 3.3c-.2.3-.1.7.1.9l3.1 2.6-4 .3c-.4 0-.6.3-.6.7l-.3 3.9zm-3.2-3.7c.3 0 .7.1.9.4l1.8 2V66c0-.6.5-1.2 1.2-1.2l2.6-.2-2-1.7c-.5-.4-.6-1.1-.2-1.7l1.5-2.2-2.6.6c-.6.1-1.3-.2-1.4-.9l-.8-2.5-1.2 2.4c-.3.6-1 .8-1.6.6l-2.5-1 1.1 2.4c.3.6 0 1.3-.5 1.6l-2.3 1.3 2.6.6c.6.2 1 .8.9 1.4l-.4 2.6 2.1-1.6c.2-.1.5-.2.8-.2zM166.8 77.5h-5.4V49.1h5.4v28.4zM172.7 49.1h22v5.2h-8.3v23.2H181V54.3h-8.3v-5.2zM223.5 49.1c1.3 0 2.6.2 3.8.7s2.2 1.2 3.1 2 1.6 1.9 2.1 3c.5 1.2.7 2.4.7 3.7 0 1.3-.2 2.5-.7 3.7-.5 1.2-1.2 2.2-2.1 3s-1.9 1.5-3.1 2-2.4.7-3.8.7h-5.2v9.5h-5.4V49.1h10.6zm0 13.7c.6 0 1.1-.1 1.6-.4.5-.2 1-.6 1.3-.9.4-.4.7-.8.9-1.3.2-.5.4-1 .4-1.6 0-.6-.1-1.1-.4-1.6-.2-.5-.6-1-.9-1.4-.4-.4-.8-.7-1.3-.9-.5-.2-1.1-.4-1.6-.4h-5.2v8.5h5.2zM259.7 72.3v5.2h-20V49.1h19.6v5.2h-14.2v6.1h13v5.2h-13v6.8h14.6zM275.9 67.1h-4v10.4h-5.4V49.1h11.2c1.4 0 2.6.2 3.8.7 1.2.5 2.2 1.1 3 1.9.8.8 1.5 1.7 2 2.8.5 1.1.7 2.2.7 3.4 0 1.6-.3 2.9-.9 4-.6 1.1-1.3 1.9-2.1 2.6-.9.8-1.9 1.4-3 1.8l6.8 11.2h-6.1l-6-10.4zm-4-5.2h5.8c1.1 0 2.1-.4 2.9-1.1.8-.8 1.2-1.7 1.2-2.7 0-1-.4-1.9-1.2-2.7-.8-.8-1.7-1.1-2.9-1.1h-5.8v7.6zM299.3 54.3v7h11v5.2h-11v11h-5.4V49.1h18.9v5.2h-13.5zM344.1 63.3c0 2-.4 3.9-1.1 5.7-.7 1.7-1.7 3.3-3 4.6-1.2 1.3-2.7 2.3-4.4 3.1-1.7.7-3.4 1.1-5.3 1.1s-3.6-.4-5.3-1.1c-1.7-.7-3.1-1.8-4.4-3.1-1.2-1.3-2.2-2.8-3-4.6-.7-1.7-1.1-3.6-1.1-5.7 0-2 .4-3.9 1.1-5.6.7-1.8 1.7-3.3 3-4.6 1.2-1.3 2.7-2.3 4.4-3.1 1.7-.7 3.4-1.1 5.3-1.1s3.6.4 5.3 1.1c1.7.7 3.1 1.8 4.4 3.1 1.2 1.3 2.2 2.8 3 4.6.8 1.7 1.1 3.6 1.1 5.6zm-22 0c0 1.3.2 2.6.7 3.7s1 2.1 1.8 2.9c.8.8 1.6 1.5 2.6 1.9 1 .5 2.1.7 3.2.7s2.2-.2 3.2-.7 1.9-1.1 2.7-1.9c.8-.8 1.4-1.8 1.8-2.9.5-1.1.7-2.4.7-3.7 0-1.4-.2-2.6-.7-3.7-.4-1.1-1-2.1-1.8-2.9-.8-.8-1.6-1.5-2.7-1.9-1-.4-2.1-.7-3.2-.7s-2.2.2-3.2.7c-1 .5-1.9 1.1-2.6 1.9-.8.8-1.3 1.8-1.8 2.9s-.7 2.3-.7 3.7zM360.1 67.1h-4v10.4h-5.4V49.1h11.2c1.4 0 2.6.2 3.8.7 1.2.5 2.2 1.1 3 1.9.8.8 1.5 1.7 2 2.8.5 1.1.7 2.2.7 3.4 0 1.6-.3 2.9-.9 4-.6 1.1-1.3 1.9-2.1 2.6-.9.8-1.9 1.4-3 1.8l6.8 11.2h-6.1l-6-10.4zm-4.1-5.2h5.8c1.1 0 2.1-.4 2.9-1.1.8-.8 1.2-1.7 1.2-2.7 0-1-.4-1.9-1.2-2.7-.8-.8-1.7-1.1-2.9-1.1H356v7.6zM406.9 49.1v28.4h-5.4V61.7l-7.2 15.8h-3.6l-7.2-15.8v15.8h-5.4V49.1h4.7l9.7 20.9 9.7-20.9h4.7zM417.5 77.5h-5.6l10.6-28.4h5l10.6 28.4h-5.6l-2-5.9h-10.8l-2.2 5.9zm11-10.8-3.6-10.4-3.6 10.4h7.2zM465.6 49.1v28.4h-4.7L448.3 59v18.5h-5.4V49.1h4.7l12.6 18.5V49.1h5.4zM477.5 63.3c0 1.3.2 2.6.7 3.7s1 2.1 1.8 2.9c.8.8 1.6 1.5 2.6 1.9 1 .5 2.1.7 3.2.7 1 0 1.8-.1 2.6-.4.8-.3 1.5-.7 2.1-1.1.6-.5 1.1-1 1.5-1.6s.7-1.2 1-1.8h5.6c-.3 1.4-.9 2.6-1.6 3.9-.8 1.2-1.7 2.3-2.8 3.2-1.1.9-2.4 1.7-3.8 2.2-1.4.6-3 .8-4.7.8-1.9 0-3.6-.4-5.3-1.1-1.7-.7-3.1-1.8-4.4-3.1-1.2-1.3-2.2-2.8-3-4.6-.7-1.7-1.1-3.6-1.1-5.7 0-2 .4-3.9 1.1-5.6.7-1.8 1.7-3.3 3-4.6 1.2-1.3 2.7-2.3 4.4-3.1 1.7-.7 3.4-1.1 5.3-1.1 1.6 0 3.1.3 4.5.8 1.4.6 2.6 1.3 3.7 2.2 1.1.9 2 2 2.7 3.2.8 1.2 1.3 2.5 1.6 3.9h-5.6c-.2-.6-.5-1.2-.9-1.8-.4-.6-.9-1.1-1.5-1.6s-1.3-.8-2-1.1c-.8-.3-1.6-.4-2.6-.4-1.1 0-2.2.2-3.2.7-1 .5-1.9 1.1-2.6 1.9-.8.8-1.3 1.8-1.8 2.9s-.5 2.4-.5 3.8zM525 72.3v5.2h-20V49.1h19.6v5.2h-14.2v6.1h13v5.2h-13v6.8H525z"/></svg>