<?xml version="1.0" encoding="UTF-8"?><svg id="a" xmlns="http://www.w3.org/2000/svg" viewBox="0 0 53 53"><defs><style>.b {
  fill: #fff;
}

.c {
  fill: #da6f5c;
}

</style></defs><circle class="c" cx="26.5" cy="26.5" r="26.5"></circle><path class="b" d="M29.3,26.28c0-.79-.26-1.44-.79-1.97-.55-.52-1.21-.79-1.99-.79-.85,0-1.54,.33-2.07,.99-.55,.65-.82,1.48-.82,2.5,0,.88,.22,1.6,.65,2.17,.44,.57,1,.85,1.69,.85,.88,0,1.65-.37,2.32-1.13,.67-.75,1.01-1.63,1.01-2.63m2.56-4.89l-.79,6.66c-.03,.25-.06,.48-.07,.71-.01,.22-.02,.43-.02,.63,0,.63,.26,.95,.78,.95,.73,0,1.39-.52,1.98-1.56,.59-1.02,.88-2.19,.88-3.5,0-2.08-.72-3.78-2.16-5.11-1.43-1.34-3.27-2.02-5.5-2.02s-4.29,.8-5.88,2.41c-1.58,1.6-2.37,3.58-2.37,5.94,0,1.3,.28,2.58,.85,3.83,.58,1.17,1.39,2.14,2.43,2.9,1.39,1.01,3.13,1.52,5.23,1.52,1.96,0,4.01-.5,6.16-1.51l.19-.1,.65,1.83-.15,.08c-2.19,1.07-4.47,1.6-6.84,1.6-2.62,0-4.82-.64-6.59-1.92-1.3-.93-2.31-2.12-3.04-3.56-.72-1.52-1.08-3.07-1.08-4.64,0-2.86,1-5.27,3.01-7.22,2-1.94,4.47-2.92,7.42-2.92,2.71,0,4.97,.84,6.8,2.51,1.82,1.66,2.73,3.73,2.73,6.23,0,1.93-.49,3.58-1.48,4.96-1,1.39-2.17,2.09-3.51,2.09-1.07,0-1.8-.51-2.19-1.54-1.03,1.07-2.18,1.6-3.44,1.6-1.38,0-2.54-.5-3.46-1.51-.91-1-1.36-2.27-1.36-3.82,0-1.66,.51-3.03,1.52-4.11,1.01-1.1,2.29-1.65,3.82-1.65,1.41,0,2.54,.55,3.41,1.65l.18-1.41h1.9Z"></path></svg>