<svg id="a" xmlns="http://www.w3.org/2000/svg" viewBox="0 0 53 53"><circle cx="26.5" cy="26.5" r="26.5" style="fill:#da6f5c"/><path d="m34.95 33.85-1.28 1.28c-.23.23-.9.37-.92.37-4.05.03-7.95-1.56-10.82-4.42a15.175 15.175 0 0 1-4.43-10.86s.15-.65.37-.88l1.28-1.28c.47-.47 1.37-.68 2-.47l.27.09c.63.21 1.29.91 1.46 1.55l.64 2.37c.17.64-.06 1.56-.53 2.03l-.85.85a9.081 9.081 0 0 0 6.39 6.39l.85-.86c.47-.47 1.38-.7 2.02-.53l2.37.65c.64.17 1.34.83 1.55 1.46l.09.27c.21.63 0 1.53-.47 2" style="fill:#fff"/></svg>