<?xml version="1.0" encoding="UTF-8"?><svg id="a" xmlns="http://www.w3.org/2000/svg" viewBox="0 0 53 53"><defs><style>.b {
  fill: #fff;
}

.c {
  fill: #da6f5c;
}

</style></defs><circle class="c" cx="26.5" cy="26.5" r="26.5"></circle><path class="b" d="M34.95,33.85l-1.28,1.28c-.23,.23-.9,.37-.92,.37-4.05,.03-7.95-1.56-10.82-4.42-2.87-2.88-4.47-6.79-4.43-10.86,0,0,.15-.65,.37-.88l1.28-1.28c.47-.47,1.37-.68,2-.47l.27,.09c.63,.21,1.29,.91,1.46,1.55l.64,2.37c.17,.64-.06,1.56-.53,2.03l-.85,.85c.84,3.11,3.28,5.55,6.39,6.39l.85-.86c.47-.47,1.38-.7,2.02-.53l2.37,.65c.64,.17,1.34,.83,1.55,1.46l.09,.27c.21,.63,0,1.53-.47,2"></path></svg>